<svg xmlns="http://www.w3.org/2000/svg" version="1.1" xmlns:xlink="http://www.w3.org/1999/xlink" xmlns:svgjs="http://svgjs.com/svgjs" width="512" height="512" x="0" y="0" viewBox="0 0 600 600" style="enable-background:new 0 0 512 512" xml:space="preserve"><g><path d="M310 0H30C13.43 0 0 13.434 0 30v540c0 16.566 13.43 30 30 30h280c16.566 0 30-13.434 30-30V30c0-16.566-13.434-30-30-30Zm-65.172 20-4.281 10H99.449l-4.285-10ZM320 300v270c0 5.523-4.477 10-10 10H30c-5.527 0-10-4.477-10-10V30c0-5.523 4.473-10 10-10h43.406l10.262 23.941A9.997 9.997 0 0 0 92.855 50h154.286c3.996 0 7.609-2.383 9.187-6.059L266.586 20H310c5.523 0 10 4.477 10 10Zm0 0" style="stroke:none;fill-rule:nonzero;fill-opacity:1;" fill="#ED5A67" data-original="#000000" opacity="1"></path><path d="M270 390V210c0-5.523-4.477-10-10-10H80c-5.527 0-10 4.477-10 10v180c0 5.523 4.473 10 10 10h180c5.523 0 10-4.477 10-10Zm-20-10H90V220h160ZM200 480h-60c-5.527 0-10 4.477-10 10v60c0 5.523 4.473 10 10 10h60c5.523 0 10-4.477 10-10v-60c0-5.523-4.477-10-10-10Zm-10 60h-40v-40h40ZM220 490v60c0 5.523 4.473 10 10 10h60c5.523 0 10-4.477 10-10v-60c0-5.523-4.477-10-10-10h-60c-5.527 0-10 4.477-10 10Zm20 10h40v40h-40ZM110 480H50c-5.527 0-10 4.477-10 10v60c0 5.523 4.473 10 10 10h60c5.523 0 10-4.477 10-10v-60c0-5.523-4.477-10-10-10Zm-10 60H60v-40h40ZM42.93 327.07l14.136-14.14L44.136 300l12.93-12.93-14.136-14.14-20 20a9.996 9.996 0 0 0 0 14.14ZM297.066 272.93l-14.136 14.14L295.86 300l-12.93 12.93 14.136 14.14 20-20a9.996 9.996 0 0 0 0-14.14ZM300 70H40c-5.527 0-10 4.477-10 10v60c0 5.523 4.473 10 10 10h260c5.523 0 10-4.477 10-10V80c0-5.523-4.477-10-10-10Zm-10 60H50V90h240ZM140 410h60v20h-60ZM100 440h140v20H100Zm0 0" style="stroke:none;fill-rule:nonzero;fill-opacity:1;" fill="#ED5A67" data-original="#000000" opacity="1"></path></g></svg>