<svg width="375" height="812" viewBox="0 0 375 812" fill="none" xmlns="http://www.w3.org/2000/svg">
<g opacity="0.05">
<path d="M-1195 923.12C-1191.11 915.193 -1189.13 911.524 -1186.85 906.827C-1161.61 855.746 -1135.63 805.105 -1110.38 754.318C-1104.59 742.282 -1100.77 735.456 -1087.12 735.456C-868.864 735.163 -639.821 736.264 -421.639 735.603C-363.149 735.456 -303.925 735.75 -245.508 735.603C-182.321 735.456 -156.709 704.631 -129.115 647.606C-117.52 623.533 -84.4952 557.921 -71.579 534.582C-68.4233 528.857 -56.7546 516.674 -48.2417 516.674C14.0646 516.674 86.3516 516.821 145.796 516.674C150.126 516.674 156.804 516.674 165.831 516.674C162.455 523.573 133.54 582.36 130.972 587.571C105.286 639.533 75.7104 689.146 49.9513 741.254C-11.1808 858.608 -106.512 919.377 -238.096 920.698C-532.455 923.634 -825.052 922.166 -1119.41 923.046C-1139.89 923.046 -1171.96 923.046 -1195 923.34V923.12Z" fill="url(#paint0_linear_269_764)"/>
<path d="M-1067.45 666.105C-1064.37 659.059 -1061.58 654.215 -1059.38 649.812C-1032.3 595.135 -854.773 236.981 -827.62 182.231C-767.442 71.1884 -652.737 5.79605 -526.583 3.22732C-356.323 -0.222106 -155.241 -0.735851 -7.07056 0.878776C132.073 0.365031 265.198 1.39252 404.342 0.878776C411.681 0.878776 419.313 0.511815 429 0.878776C425.331 8.36477 421.514 16.6581 418.946 21.7955C393.7 72.8764 364.419 123.957 339.687 175.258C334.256 186.561 327.358 190.23 315.175 190.23C103.525 190.597 -104.53 191.111 -316.18 191.772C-383.183 191.992 -450.186 192.065 -517.263 192.652C-577 193.166 -619.639 221.569 -646.719 274.118C-659.635 299.218 -819.474 627.941 -833.124 652.601C-836.279 658.325 -845.013 664.197 -851.324 664.343C-910.254 665.444 -969.258 665.371 -1028.19 665.518C-1032.52 665.518 -1059.89 666.912 -1067.38 666.031L-1067.45 666.105Z" fill="url(#paint1_linear_269_764)"/>
<path d="M299.029 260.173C269.014 319.915 232.613 383.839 208.615 432.204C204.432 440.571 195.919 445.855 186.599 445.855C75.7101 446.222 -35.1056 446.589 -145.995 446.956C-212.998 447.176 -266.277 444.681 -333.28 445.195C-393.018 445.709 -436.83 480.276 -463.984 532.752C-468.901 542.219 -491.358 588.456 -522.18 651.5C-526.29 659.94 -534.95 665.371 -544.344 665.371C-577.588 665.445 -622.722 666.178 -656.26 666.325C-685.689 666.399 -701.247 665.004 -755.48 665.298C-691.266 528.788 -615.456 366.078 -599.018 335.767C-548.6 249.311 -512.493 268.54 -357.498 260.981C-181.808 261.127 -13.603 260.247 153.501 261.127C200.983 261.127 250.74 260.173 299.029 260.173Z" fill="url(#paint2_linear_269_764)"/>
</g>
<defs>
<linearGradient id="paint0_linear_269_764" x1="-2123.65" y1="2828.67" x2="638.063" y2="-771.202" gradientUnits="userSpaceOnUse">
<stop offset="0.13" stop-color="#061532"/>
<stop offset="1" stop-color="#278E68"/>
</linearGradient>
<linearGradient id="paint1_linear_269_764" x1="-2221.33" y1="2753.74" x2="540.385" y2="-846.131" gradientUnits="userSpaceOnUse">
<stop offset="0.13" stop-color="#061532"/>
<stop offset="1" stop-color="#278E68"/>
</linearGradient>
<linearGradient id="paint2_linear_269_764" x1="-2090.85" y1="2853.78" x2="670.794" y2="-746.024" gradientUnits="userSpaceOnUse">
<stop offset="0.13" stop-color="#061532"/>
<stop offset="1" stop-color="#278E68"/>
</linearGradient>
</defs>
</svg>
