<svg xmlns="http://www.w3.org/2000/svg" version="1.1" xmlns:xlink="http://www.w3.org/1999/xlink" xmlns:svgjs="http://svgjs.com/svgjs" width="512" height="512" x="0" y="0" viewBox="0 0 380.076 380.076" style="enable-background:new 0 0 512 512" xml:space="preserve" class=""><g><path d="M376.104 162.526s-33.497-25.689-33.497-25.798c0 0-2.796-2.722-2.796-8.222V72.182c0-6.341-5.159-11.5-11.5-11.5h-41.349c-6.341 0-11.5 5.159-11.5 11.5v9.449c0 2.625-1.431 1.419-1.431 1.419L197.8 23.694c-1.972-1.535-4.299-2.347-6.729-2.347-3.981 0-7.634 2.245-9.533 5.858l-17.847 33.946c-2.173 4.133-2.181 9.91-.02 14.047l23.054 44.152s1.688 2.279-.606 6.314c-6.043 10.626-28.859 39.472-28.859 39.472-2.781 3.803-3.599 9.551-1.989 13.979l6.123 16.839s1.977 5.384-1.841 2.244c-7.433-6.112-20.385-15.901-27.043-21.371-3.639-2.989-.818-6.591-.818-6.591l22.764-39.832c2.665-4.667 2.066-11.019-1.423-15.105l-28.057-32.851c-2.213-2.591-5.458-4.078-8.902-4.078-2.592 0-5.135.869-7.162 2.447L3.972 162.525c-4.076 3.172-4.502 7.292-3.541 10.089.96 2.797 3.826 5.787 8.991 5.787h23.115s2.366-.229 2.366 2.188V347.23c0 6.341 5.159 11.5 11.5 11.5h102.623c6.341 0 11.5-5.159 11.5-11.5v-49.117c0-2.291-.063-5.995-.142-8.228-.004-.151-.305-15.278 8.602-24.426 4.747-4.877 11.257-7.247 19.901-7.247 9.171 0 16.402 2.592 21.493 7.704 9.173 9.212 9.218 23.985 9.218 24.102a780.142 780.142 0 0 0-.051 8.094v49.117c0 6.341 5.159 11.5 11.5 11.5H333.67c6.341 0 11.5-5.159 11.5-11.5V181.755c0-3.625 3.112-3.354 3.112-3.354h22.369c5.165 0 8.031-2.989 8.991-5.787.963-2.797.537-6.917-3.538-10.088zm-85.641-84.771c0-2 1.998-2.074 1.998-2.074h29.748s2.603-.092 2.603 2.658v39.75c0 4.417-2.538 2.521-2.538 2.521l-31.417-24.461c-.148-.193-.394-.581-.394-1.956V77.755zm51.209 85.646c-6.341 0-11.5 5.159-11.5 11.5v165.104s.491 3.724-3.634 3.724h-87.625c-4.375 0-4.364-4.099-4.364-4.099v-41.519c0-2.175.023-5.732.049-7.907.011-.852.102-21.014-13.474-34.759-8.018-8.118-18.864-12.234-32.235-12.234-12.783 0-23.129 3.999-30.749 11.886-13.327 13.795-12.775 34.405-12.745 35.277.072 2.083.133 5.626.133 7.737v42.769s.261 2.849-4.364 2.849H54.289c-5 0-4.384-4.099-4.384-4.099V174.901c0-6.341-5.159-11.5-11.5-11.5h-7.533c-3 0-.471-2.442-.471-2.442l83.322-64.876s1.815-1.514 3.045-.146c3.913 4.354 16.046 18.802 20.625 24.147 2.146 2.506-.388 4.287-.388 4.287l-64.308 41.233a6 6 0 1 0 6.476 10.102s35.04-22.105 46.496-29.813c2.618-1.761 2.406.439 2.406.439l-12.983 22.718c-2.908 5.092-1.581 11.926 3.022 15.558l53.442 42.173c1.977 1.558 4.042 2.349 6.139 2.349h.001a8.023 8.023 0 0 0 6.573-3.4c1.174-1.677 2.259-4.544.754-8.683l-15.571-42.82c.003-.131.028-.31.063-.436l31.383-42.923c2.962-4.053 3.425-10.223 1.102-14.672 0 0-8.027-15.621-10.838-20.755-2.791-5.1 1.676-2.164 1.676-2.164l110.107 82.188a5.973 5.973 0 0 0 3.584 1.192 6 6 0 0 0 3.594-10.808L179.231 68.143s-1.755-1.102-.619-3.164c2.685-4.87 9.675-18.583 12.477-23.706 1.24-2.268 3.546-1.034 3.546-1.034l153.871 119.808s3.032 3.354-1.301 3.354h-5.533z" fill="#ED5A67" data-original="#000000" opacity="1"></path></g></svg>