<svg width="304" height="264" viewBox="0 0 304 264" fill="none" xmlns="http://www.w3.org/2000/svg">
<path d="M132.337 22.3C132.997 27.2134 132.077 31.82 129.577 36.12C129.297 36.6 129.143 36.56 129.117 36C129.067 35.03 129.647 33.86 129.637 32.98C129.577 22.57 124.057 14.76 114.607 10.5C112.533 9.56669 112.623 9.28335 114.877 9.65002C127.647 11.73 137.557 16.19 143.627 28.16C143.847 28.5867 144.103 28.61 144.397 28.23C148.717 22.6634 148.013 17.9434 142.287 14.07C142.216 14.0213 142.159 13.9559 142.12 13.8798C142.082 13.8038 142.062 13.7196 142.064 13.635C142.066 13.5503 142.09 13.468 142.132 13.3955C142.174 13.323 142.234 13.2626 142.307 13.22C147.02 10.4467 150.197 6.46002 151.837 1.26002C152.017 0.673352 152.183 0.676695 152.337 1.27003C153.887 7.43003 157.057 9.76003 161.587 13.33C161.953 13.6234 161.943 13.9034 161.556 14.17C155.923 18.05 155.283 22.7334 159.637 28.22C159.694 28.2896 159.767 28.3438 159.85 28.3777C159.934 28.4116 160.024 28.4242 160.114 28.4142C160.203 28.4043 160.289 28.3722 160.362 28.3208C160.436 28.2694 160.496 28.2004 160.537 28.12C166.257 16.28 177.616 10.71 190.306 9.59002C190.357 9.588 190.408 9.60373 190.448 9.63453C190.489 9.66533 190.517 9.70929 190.529 9.75889C190.541 9.80849 190.535 9.86065 190.513 9.90646C190.491 9.95226 190.453 9.98887 190.407 10.01C178.797 14.82 172.007 25.34 175.367 38.04C175.382 38.0755 175.382 38.1154 175.369 38.1515C175.355 38.1876 175.328 38.2171 175.294 38.2338C175.259 38.2505 175.219 38.2532 175.182 38.2414C175.146 38.2295 175.115 38.2039 175.097 38.17C171.723 33.4567 170.41 28.22 171.157 22.46C171.197 22.1467 171.093 22.0867 170.847 22.28C166.327 25.9067 163.463 30.5434 162.257 36.19C162.183 36.53 162.01 36.59 161.737 36.37C157.73 33.19 154.473 29.3667 151.967 24.9C151.753 24.52 151.543 24.5267 151.337 24.92C148.963 29.4867 145.71 33.32 141.577 36.42C141.31 36.62 141.147 36.5567 141.087 36.23C139.953 30.53 137.13 25.8334 132.617 22.14C132.39 21.9467 132.297 22 132.337 22.3Z" fill="#ED5A67"/>
<path d="M64.3265 18.7401C64.2199 18.7467 64.1199 18.8301 64.0266 18.9901C60.1932 25.5701 59.5299 32.6767 62.0366 40.3101C64.0866 46.5601 67.7965 54.3601 66.7965 58.4801C66.7299 58.7467 66.6099 58.7734 66.4366 58.5601C61.9032 52.9934 57.0366 47.7234 51.8366 42.7501C43.9466 35.2201 40.6965 19.0601 49.4865 10.9701C49.9532 10.5501 50.0999 10.6401 49.9265 11.2401C48.6332 15.8001 48.9132 20.2567 50.7665 24.6101C50.8094 24.706 50.8799 24.787 50.9689 24.8428C51.0579 24.8986 51.1616 24.9267 51.2666 24.9235C51.3716 24.9203 51.4734 24.8859 51.5588 24.8248C51.6443 24.7636 51.7096 24.6784 51.7466 24.5801C58.5966 4.78006 78.5366 4.59006 95.7566 7.44006C95.8468 7.45378 95.9296 7.49794 95.9913 7.56522C96.053 7.63249 96.0898 7.71884 96.0956 7.80992C96.1015 7.901 96.076 7.99135 96.0234 8.06595C95.9708 8.14055 95.8943 8.19494 95.8066 8.22006C88.1366 10.4301 78.1266 14.7001 73.6566 20.9001C65.2266 32.5801 77.6565 46.7301 72.3565 59.3701C72.3253 59.4559 72.2627 59.5266 72.1812 59.568C72.0998 59.6093 72.0057 59.6182 71.918 59.5928C71.8303 59.5674 71.7555 59.5096 71.7088 59.4311C71.6621 59.3526 71.647 59.2593 71.6665 59.1701C72.1765 55.7801 71.3366 53.3001 69.6866 49.9301C64.6166 39.6601 58.9766 30.7601 64.4666 18.9401C64.5332 18.7934 64.4865 18.7267 64.3265 18.7401Z" fill="#ED5A67"/>
<path d="M239.517 19.28C245.267 30.78 238.807 41.52 232.787 53.02C232.207 54.1266 232.06 56.29 232.347 59.51C232.407 60.1633 232.247 60.2233 231.867 59.69C229.577 56.44 229.837 49.78 230.687 45.97C231.897 40.53 233.847 33.96 233.237 28.94C231.657 16.02 218.627 12.01 208.207 8.10998C207.8 7.95665 207.81 7.83332 208.237 7.73998C218.117 5.57332 226.98 5.48331 234.827 7.46998C243.657 9.69998 248.777 16.63 252.367 24.76C252.397 24.8308 252.448 24.8913 252.512 24.9342C252.576 24.977 252.651 25.0003 252.728 25.0014C252.805 25.0025 252.881 24.9812 252.947 24.9401C253.012 24.8991 253.064 24.84 253.097 24.77C255.387 20.1 255.017 15.93 254.037 11.27C254.02 11.1998 254.028 11.1267 254.06 11.0624C254.091 10.9981 254.143 10.9463 254.209 10.9152C254.275 10.8842 254.349 10.8756 254.421 10.891C254.493 10.9063 254.559 10.9447 254.607 11C259.6 17.0866 261.053 23.78 258.967 31.08C255.967 41.63 244.327 49.52 237.757 58.49C237.49 58.8566 237.32 58.8166 237.247 58.37C236.88 56.0833 236.897 54.47 237.297 53.53C241.917 42.83 246.887 29.27 239.727 19.16C239.113 18.2933 239.043 18.3333 239.517 19.28Z" fill="#ED5A67"/>
<path d="M87.1665 40.1001C89.3532 36.1267 92.5799 33.3467 96.8465 31.76C96.9257 31.7302 97.013 31.7301 97.0923 31.7597C97.1715 31.7893 97.2374 31.8467 97.2777 31.9211C97.3179 31.9955 97.3298 32.082 97.3113 32.1645C97.2927 32.2471 97.2448 32.3201 97.1765 32.37C82.7665 43.17 98.3165 67.04 74.3565 74.68C73.3032 75.0134 73.2065 74.8301 74.0665 74.1301C90.5665 60.6901 73.4465 40.08 86.3965 24.09C92.6165 16.3967 100.92 13.2734 111.307 14.7201C116.413 15.4334 120.007 18 122.087 22.42C124.747 28.06 121.707 35.32 114.867 35.34C107.987 35.35 104.317 25.6001 112.157 23.7501C112.49 23.6701 112.81 23.7134 113.117 23.8801C113.363 24.0134 113.65 24.0601 113.977 24.0201C114.39 23.9601 114.45 23.7834 114.157 23.4901C112.283 21.5967 110.523 20.6534 108.877 20.6601C95.6565 20.7467 88.2299 27.1634 86.5965 39.9101C86.5915 39.9788 86.6096 40.0472 86.6478 40.1045C86.6861 40.1618 86.7423 40.2048 86.8077 40.2266C86.873 40.2484 86.9438 40.2478 87.0088 40.2248C87.0738 40.2019 87.1293 40.158 87.1665 40.1001Z" fill="#ED5A67"/>
<path d="M217.287 39.88C217.517 27.36 201.227 15.13 189.857 23C189.789 23.045 189.738 23.1103 189.712 23.1865C189.685 23.2627 189.684 23.3458 189.708 23.4238C189.733 23.5018 189.782 23.5706 189.848 23.6202C189.914 23.6699 189.994 23.6978 190.077 23.7C199.307 23.78 197.247 35.08 189.327 35.36C184.967 35.51 181.467 32.04 180.947 27.9C180.037 20.55 186.547 15.69 193.337 14.77C199.897 13.87 205.257 14.73 210.917 18.22C235.097 33.11 211.587 57.6099 229.937 74.3599C230.283 74.6799 230.227 74.7866 229.767 74.68C221.137 72.75 215.756 65.15 214.746 56.72C213.676 47.74 214.277 38.33 206.197 31.75C206.168 31.7243 206.149 31.6897 206.143 31.6518C206.136 31.6139 206.143 31.575 206.161 31.5414C206.18 31.5078 206.209 31.4814 206.245 31.4666C206.28 31.4518 206.32 31.4495 206.357 31.46C210.93 32.96 214.393 35.8133 216.746 40.02C217.093 40.6333 217.273 40.5866 217.287 39.88Z" fill="#ED5A67"/>
<path d="M57.5765 118.75C22.8965 109 11.4266 69.0701 28.5566 39.7801C31.7766 34.2801 41.4165 38.4201 37.0166 46.6401C21.9265 74.8001 29.3866 102.83 57.7866 118.24C57.8422 118.275 57.8836 118.329 57.9036 118.392C57.9235 118.455 57.9207 118.522 57.8956 118.583C57.8706 118.644 57.8248 118.694 57.7665 118.725C57.7081 118.755 57.6409 118.764 57.5765 118.75Z" fill="#ED5A67"/>
<path d="M266.067 45.0099C263.847 40.7599 268.547 36.0399 272.957 37.8999C274.997 38.7599 276.077 40.89 277.007 42.83C291.557 73.26 279.987 108.5 246.377 118.84C246.314 118.852 246.25 118.843 246.193 118.813C246.137 118.784 246.092 118.736 246.067 118.678C246.041 118.62 246.036 118.555 246.052 118.493C246.069 118.432 246.105 118.378 246.157 118.34C275.757 100.9 281.857 75.2699 266.067 45.0099Z" fill="#ED5A67"/>
<path d="M151.717 227.33C93.9366 203.85 60.2066 150.55 66.3566 87.83C66.3791 87.5856 66.4814 87.3553 66.6476 87.1746C66.8138 86.9939 67.0348 86.8728 67.2766 86.83C85.2566 83.51 98.8966 69.7701 96.3266 50.5501C96.3063 50.3783 96.3533 50.2053 96.4577 50.0674C96.5621 49.9295 96.7157 49.8373 96.8866 49.8101C113.887 47.1201 131.877 44.1701 148.637 43.9201C168.277 43.6301 187.747 46.8601 207.127 49.7101C207.467 49.7634 207.62 49.9601 207.587 50.3001C205.537 70.0201 217.487 81.9801 235.347 86.6201C235.42 86.6401 235.753 86.67 236.347 86.71C237.047 86.7634 237.44 87.2801 237.527 88.2601C243.187 152.06 210.357 202.61 152.617 227.33C152.317 227.457 152.017 227.457 151.717 227.33ZM72.1766 93.21C68.2566 150.15 99.1866 197.96 150.807 220.36C151.587 220.693 152.37 220.683 153.157 220.33C204.987 197.07 234.397 152.2 232.007 95.18C231.967 94.18 231.8 93.19 231.507 92.21C231.461 92.0574 231.376 91.9186 231.261 91.8067C231.146 91.6947 231.003 91.6133 230.847 91.5701C213.517 86.9801 201.867 73.7401 201.107 55.5501C201.101 55.421 201.05 55.2977 200.963 55.2011C200.875 55.1045 200.756 55.0406 200.627 55.0201C188.447 53.2301 175.317 51.2001 163.857 50.5901C143.627 49.5301 123.947 51.6501 103.967 54.8801C103.656 54.9303 103.372 55.0859 103.162 55.3209C102.953 55.5558 102.831 55.8557 102.817 56.1701C101.977 73.7201 90.3366 86.9401 73.6066 91.4701C73.2156 91.5755 72.8676 91.8 72.6111 92.112C72.3547 92.4241 72.2027 92.808 72.1766 93.21Z" fill="#ED5A67"/>
<path d="M56.9465 115.12C37.3165 101.08 30.5165 80.4199 40.6365 57.7199C44.0665 50.0299 51.6165 55.3699 48.5165 60.4899C37.6065 78.4899 42.4065 100.67 57.4065 114.96C57.5465 115.093 57.5265 115.19 57.3465 115.25C57.2465 115.283 57.1132 115.24 56.9465 115.12Z" fill="#ED5A67"/>
<path d="M255.397 60.26C252.437 55.34 260.047 50.06 263.547 58.16C273.307 80.71 266.647 102.02 246.047 115.55C246.036 115.557 246.025 115.561 246.013 115.563C246.001 115.564 245.988 115.563 245.977 115.559C245.965 115.556 245.955 115.549 245.946 115.541C245.937 115.532 245.931 115.522 245.927 115.51C245.893 115.423 245.863 115.337 245.837 115.25C245.83 115.237 245.857 115.207 245.917 115.16C252.687 109.92 257.277 100.88 259.757 92.9C263.317 81.44 261.457 70.36 255.397 60.26Z" fill="#ED5A67"/>
<path d="M227.207 96.05C229.827 149.3 201.237 194.38 152.407 215.4C152.23 215.476 152.039 215.514 151.846 215.512C151.654 215.511 151.463 215.469 151.287 215.39C102.427 193.55 75.0865 150.8 76.6365 96.72C76.6483 96.3024 76.7867 95.8986 77.0334 95.5626C77.28 95.2266 77.623 94.9744 78.0166 94.84C94.7499 89.02 104.523 77.32 107.337 59.74C107.383 59.4533 107.55 59.2933 107.837 59.26C118.837 57.78 130.877 55.79 140.957 55.12C160.187 53.85 177.407 56.61 195.677 59.19C195.971 59.2328 196.243 59.3701 196.452 59.5811C196.661 59.7922 196.796 60.0655 196.837 60.36C198.723 73.8666 205.42 84.0133 216.927 90.8C219.627 92.38 223.377 93.83 226.677 95.29C227.01 95.4367 227.187 95.69 227.207 96.05ZM78.1365 97.09C76.0465 148.7 104.027 192.59 150.837 213.24C150.87 213.253 151.05 213.367 151.377 213.58C151.777 213.833 152.277 213.817 152.877 213.53C185.207 198.05 209.127 174.95 220.047 140.23C224.447 126.257 226.263 111.933 225.497 97.26C225.483 96.92 225.323 96.6767 225.017 96.53C222.81 95.47 220.627 94.3833 218.467 93.27C205.4 86.55 197.663 75.9 195.257 61.32C195.197 60.9733 194.997 60.7733 194.657 60.72C173.047 57.08 151.637 55.26 129.777 57.9C123.043 58.7133 116.44 59.6 109.967 60.56C109.233 60.6733 108.797 61.0933 108.657 61.82C105.33 79.1867 95.3332 90.7067 78.6665 96.38C78.3265 96.5 78.1499 96.7367 78.1365 97.09Z" fill="#ED5A67"/>
<path d="M53.1365 83.16C54.8365 79.51 59.6566 80.19 59.8466 83.98C59.9266 85.6 58.2766 88.07 57.5066 89.67C54.0132 96.9967 54.2165 104.15 58.1165 111.13C58.5565 111.923 58.4432 112.013 57.7765 111.4C49.9265 104.17 48.9965 92.06 53.1365 83.16Z" fill="#ED5A67"/>
<path d="M244.607 85.73C242.377 81.43 248.927 78.79 250.587 82.46C255.487 93.2867 253.957 103.003 245.997 111.61C245.95 111.658 245.887 111.688 245.819 111.693C245.751 111.698 245.685 111.679 245.632 111.638C245.579 111.598 245.544 111.54 245.533 111.475C245.523 111.411 245.539 111.345 245.577 111.29C251.157 102.4 249.067 94.33 244.607 85.73Z" fill="#ED5A67"/>
<path d="M280.037 116.21C278.507 103.78 286.507 96.9499 295.117 89.5199C295.497 89.1866 295.647 89.2699 295.567 89.7699C294.327 97.6799 292.667 104.41 295.377 112.24C299.007 122.77 304.897 134.19 303.597 145.61C302.103 158.803 295.207 168.02 282.907 173.26C278.627 175.09 273.077 175.38 268.237 176.22C268.169 176.231 268.106 176.26 268.054 176.304C268.002 176.348 267.962 176.405 267.94 176.47C267.917 176.534 267.912 176.603 267.926 176.67C267.939 176.737 267.971 176.799 268.017 176.85C275.19 184.69 276.33 193.437 271.437 203.09C271.177 203.603 271.037 203.573 271.017 203C270.623 192.693 266.433 184.287 258.447 177.78C258.364 177.715 258.303 177.628 258.268 177.529C258.234 177.43 258.228 177.324 258.253 177.222C258.277 177.12 258.33 177.027 258.405 176.954C258.48 176.881 258.574 176.831 258.677 176.81C285.507 171.22 304.387 150.29 290.737 121.61C290.23 120.537 290.147 120.57 290.487 121.71C291.247 124.237 292 127.087 292.747 130.26C297.197 149.3 284.537 163.98 267.817 170.46C267.776 170.479 267.73 170.482 267.687 170.468C267.644 170.455 267.608 170.426 267.585 170.387C267.563 170.348 267.555 170.302 267.565 170.259C267.574 170.215 267.6 170.176 267.637 170.15C286.397 155.81 286.837 131.35 273.557 113.55C273.489 113.471 273.453 113.371 273.456 113.268C273.458 113.164 273.498 113.065 273.569 112.99C273.639 112.914 273.735 112.868 273.838 112.858C273.941 112.849 274.044 112.878 274.127 112.94L279.637 116.47C279.95 116.67 280.083 116.583 280.037 116.21Z" fill="#ED5A67"/>
<path d="M13.7966 120.22C10.5499 126.42 8.8066 132.27 8.5666 137.77C7.6366 159.47 26.0366 173.17 45.4366 176.73C45.5261 176.747 45.609 176.788 45.6756 176.85C45.7422 176.912 45.7898 176.992 45.8129 177.08C45.836 177.168 45.8335 177.261 45.8059 177.348C45.7782 177.434 45.7264 177.512 45.6566 177.57C38.9966 183.07 32.4666 192.93 33.1066 201.95C33.2466 203.897 32.9032 203.987 32.0766 202.22C27.6632 192.78 28.9666 184.337 35.9866 176.89C36.0389 176.835 36.0752 176.767 36.0913 176.694C36.1074 176.62 36.1028 176.543 36.078 176.471C36.0531 176.4 36.009 176.337 35.9505 176.289C35.8921 176.241 35.8215 176.21 35.7466 176.2C23.0466 174.47 13.5866 172.48 6.02659 161.09C-5.16341 144.23 2.08658 130.37 8.32658 112.94C11.0166 105.44 10.2966 97.47 8.23658 89.99C8.20943 89.8993 8.21332 89.8026 8.24763 89.715C8.28194 89.6273 8.34478 89.5534 8.42652 89.5045C8.50827 89.4557 8.60439 89.4347 8.70014 89.4447C8.7959 89.4547 8.88598 89.4952 8.95658 89.56C17.3066 97.3 25.4766 103.25 23.9766 116.24C23.9671 116.319 23.9826 116.399 24.0209 116.469C24.0593 116.538 24.1185 116.594 24.1903 116.628C24.2621 116.663 24.3428 116.673 24.4211 116.659C24.4993 116.645 24.5712 116.607 24.6266 116.55C26.1666 114.963 27.9866 113.803 30.0866 113.07C30.1576 113.044 30.2353 113.041 30.3078 113.063C30.3804 113.084 30.444 113.129 30.4891 113.19C30.5342 113.251 30.5583 113.325 30.5578 113.4C30.5574 113.476 30.5324 113.55 30.4866 113.61C17.2866 131.52 17.4266 155.93 36.0866 169.87C36.1378 169.903 36.1746 169.954 36.1896 170.013C36.2046 170.072 36.1967 170.134 36.1676 170.187C36.1384 170.241 36.09 170.281 36.0323 170.3C35.9746 170.319 35.9118 170.315 35.8566 170.29C25.4066 166.36 15.3366 158.05 11.7466 147.29C8.75659 138.31 10.7566 129.64 13.9566 120.29C13.9599 120.27 13.9566 120.25 13.947 120.232C13.9375 120.214 13.9223 120.201 13.9039 120.192C13.8855 120.184 13.865 120.183 13.8455 120.188C13.8261 120.193 13.8088 120.204 13.7966 120.22Z" fill="#ED5A67"/>
<path d="M165.267 106.8C164.307 106.473 163.337 106.19 162.357 105.95C162.103 105.89 161.9 105.78 161.747 105.62C161.2 105.053 161.223 104.62 161.817 104.32C161.902 104.274 161.995 104.25 162.087 104.25H178.517C178.65 104.25 178.76 104.297 178.847 104.39L179.067 104.6C179.198 104.73 179.285 104.897 179.314 105.079C179.344 105.261 179.316 105.447 179.233 105.613C179.15 105.779 179.017 105.915 178.853 106.002C178.688 106.089 178.501 106.124 178.317 106.1C175.797 105.77 174.307 107.16 174.157 109.74C173.397 123.413 173.387 137.077 174.127 150.73C174.307 154.02 175.057 154.86 178.377 154.96C178.584 154.964 178.784 155.037 178.944 155.169C179.104 155.3 179.215 155.482 179.259 155.685C179.303 155.887 179.277 156.099 179.186 156.285C179.095 156.471 178.944 156.621 178.757 156.71C178.33 156.923 177.687 157.01 176.827 156.97C171.94 156.75 167.017 156.727 162.057 156.9C161.934 156.902 161.814 156.868 161.71 156.803C161.606 156.738 161.524 156.643 161.473 156.532C161.422 156.421 161.405 156.297 161.423 156.176C161.442 156.054 161.495 155.941 161.577 155.85C163.357 153.96 166.037 155.64 166.407 152.06C167.08 145.4 167.28 138.727 167.007 132.04C166.987 131.547 166.73 131.3 166.237 131.3H137.387C137.301 131.3 137.216 131.317 137.137 131.351C137.058 131.384 136.986 131.433 136.927 131.494C136.867 131.556 136.82 131.629 136.789 131.709C136.758 131.789 136.744 131.874 136.747 131.96L137.457 151.94C137.477 152.507 137.675 153.053 138.021 153.503C138.366 153.953 138.844 154.284 139.387 154.45L142.557 155.42C142.72 155.469 142.861 155.576 142.952 155.72C143.044 155.864 143.08 156.037 143.054 156.206C143.029 156.375 142.943 156.529 142.813 156.64C142.683 156.751 142.517 156.811 142.347 156.81L125.047 156.73C124.693 156.723 124.537 156.543 124.577 156.19C124.61 155.89 124.74 155.637 124.967 155.43C125.677 154.78 127.957 154.76 129.167 153.89C129.303 153.789 129.417 153.661 129.503 153.515C129.589 153.369 129.645 153.207 129.667 153.04C129.807 151.813 129.913 149.883 129.987 147.25C130.36 133.463 130.353 121.69 129.967 111.93C129.847 108.82 130.087 106.46 126.157 106.02C125.243 105.92 124.72 105.537 124.587 104.87C124.57 104.795 124.571 104.718 124.589 104.644C124.607 104.57 124.642 104.5 124.691 104.441C124.74 104.381 124.801 104.333 124.872 104.3C124.942 104.267 125.019 104.25 125.097 104.25H142.107C142.265 104.247 142.419 104.301 142.54 104.402C142.662 104.502 142.744 104.643 142.771 104.8C142.799 104.957 142.77 105.119 142.691 105.258C142.611 105.397 142.486 105.504 142.337 105.56L138.687 106.9C138.345 107.028 138.049 107.253 137.836 107.549C137.622 107.844 137.501 108.196 137.487 108.56L136.767 127.37C136.762 127.474 136.779 127.577 136.816 127.674C136.852 127.771 136.907 127.859 136.978 127.934C137.049 128.009 137.134 128.068 137.229 128.109C137.323 128.149 137.424 128.17 137.527 128.17L166.457 128.2C166.897 128.2 167.12 127.98 167.127 127.54C167.187 121.54 167.737 112.24 165.927 107.44C165.87 107.29 165.782 107.155 165.667 107.044C165.553 106.933 165.416 106.85 165.267 106.8Z" fill="#ED5A67"/>
<path d="M38.5465 131.52C38.2799 131.613 38.0599 131.8 37.8865 132.08C32.9065 140.16 35.7465 149.34 41.6865 156.01C41.7402 156.07 41.8117 156.11 41.8905 156.126C41.9693 156.141 42.051 156.131 42.1232 156.096C42.1955 156.061 42.2544 156.003 42.291 155.932C42.3277 155.861 42.3402 155.779 42.3265 155.7C41.6065 152.087 42.3032 148.8 44.4165 145.84C44.7365 145.387 44.8632 145.437 44.7965 145.99C42.4465 166.04 61.6865 164.83 71.6065 174.71C73.9165 177.01 76.8365 180.59 77.4965 183.95C77.6299 184.61 77.4932 184.673 77.0865 184.14C64.0065 166.74 37.0565 171.34 29.3065 148.59C26.9565 141.71 27.4665 132.05 33.3765 126.8C41.6865 119.43 55.3565 127.78 50.0365 138.03C46.4465 144.93 33.7465 140.18 38.8365 131.88C39.0765 131.493 38.9799 131.373 38.5465 131.52Z" fill="#ED5A67"/>
<path d="M262.267 155.88C267.607 150.25 271.747 138.78 265.767 132.08C265.367 131.627 265.243 131.693 265.397 132.28C265.737 133.56 266.387 134.82 266.297 136.05C266.017 140.25 260.527 142.26 257.257 140.94C245.117 136.06 259.647 114.8 271.657 127.71C276.257 132.66 276.847 141.84 274.877 147.77C266.827 172.08 238.447 166.75 226.827 184.44C226.797 184.488 226.752 184.524 226.699 184.54C226.646 184.556 226.588 184.551 226.537 184.527C226.486 184.502 226.445 184.46 226.421 184.407C226.397 184.354 226.392 184.295 226.407 184.24C229.927 173 238.677 170.78 247.817 165.69C256.207 161.01 260.627 155.54 259.067 145.76C259.052 145.704 259.059 145.645 259.085 145.593C259.111 145.541 259.155 145.501 259.208 145.479C259.262 145.457 259.322 145.455 259.376 145.473C259.431 145.492 259.477 145.53 259.507 145.58C261.62 148.573 262.343 151.907 261.677 155.58C261.666 155.652 261.679 155.726 261.713 155.79C261.747 155.855 261.8 155.907 261.865 155.94C261.93 155.974 262.003 155.985 262.075 155.975C262.147 155.964 262.214 155.931 262.267 155.88Z" fill="#ED5A67"/>
<path d="M64.2266 164.24C59.8166 161.37 54.6766 158.44 52.6966 153.24C52.5832 152.94 52.5666 152.637 52.6466 152.33C53.6866 148.44 57.6866 148.56 59.3966 152.01C64.9966 163.3 74.9766 165.08 78.6666 177.45C78.676 177.501 78.6679 177.554 78.6437 177.599C78.6194 177.645 78.5803 177.682 78.5329 177.702C78.4854 177.723 78.4323 177.727 78.3821 177.714C78.332 177.701 78.2878 177.671 78.2566 177.63C74.6366 171.59 70.7466 168.49 64.2266 164.24Z" fill="#ED5A67"/>
<path d="M250.447 150.8C253.317 154.23 246.847 159.47 244.397 161.07C237.177 165.77 230.457 169.66 225.897 177.41C225.863 177.463 225.812 177.502 225.752 177.52C225.692 177.538 225.628 177.534 225.571 177.509C225.513 177.483 225.467 177.438 225.441 177.381C225.414 177.325 225.409 177.26 225.427 177.2C229.107 165.2 239.717 162.48 244.567 151.99C245.797 149.31 248.397 148.36 250.447 150.8Z" fill="#ED5A67"/>
<path d="M79.0366 195.94C79.5499 192.047 81.3566 188.92 84.4566 186.56C84.5289 186.504 84.6174 186.473 84.7088 186.472C84.8002 186.471 84.8894 186.5 84.9629 186.555C85.0364 186.609 85.0902 186.686 85.1161 186.773C85.142 186.861 85.1387 186.954 85.1065 187.04C79.1565 203.46 92.1265 218.25 106.707 223.81C119.197 228.58 131.937 228.92 145.117 229.67C145.237 229.677 145.293 229.74 145.287 229.86C145.28 230.007 145.237 230.083 145.157 230.09C130.607 231.7 113.897 233.27 99.9766 228.01C85.3666 222.49 79.1965 211.63 70.5465 198.55C67.8165 194.42 61.1366 189.77 55.7066 191.64C49.9066 193.63 46.8866 199.16 49.1266 205.21C49.1866 205.377 49.3099 205.447 49.4966 205.42C49.6899 205.393 49.7632 205.287 49.7166 205.1C46.4266 191.45 66.4966 190.62 66.3066 204.29C66.0466 223.6 36.4166 218.09 39.9066 198.42C41.7066 188.24 50.9166 181.77 61.0866 183.13C68.7066 184.14 74.4266 189.56 78.4666 196.06C78.7732 196.547 78.9632 196.507 79.0366 195.94Z" fill="#ED5A67"/>
<path d="M254.677 205.04C256.627 199.98 254.877 195.1 250.197 192.46C238.807 186.04 230.047 203.77 225.387 210.76C210.057 233.76 183.017 233.46 158.687 230.01C158.62 230.006 158.558 229.976 158.514 229.926C158.47 229.876 158.448 229.811 158.452 229.745C158.456 229.679 158.486 229.617 158.535 229.573C158.585 229.529 158.65 229.506 158.717 229.51C171.737 229.04 185.817 228.6 197.807 223.73C212.427 217.78 224.647 203.3 218.757 186.51C218.738 186.467 218.735 186.42 218.746 186.375C218.758 186.33 218.784 186.29 218.82 186.262C218.857 186.233 218.902 186.218 218.948 186.217C218.994 186.217 219.04 186.232 219.077 186.26C222.39 188.56 224.307 191.727 224.827 195.76C224.834 195.834 224.863 195.903 224.911 195.96C224.958 196.017 225.021 196.058 225.092 196.078C225.163 196.099 225.239 196.097 225.309 196.074C225.379 196.052 225.441 196.008 225.487 195.95C226.48 194.737 227.39 193.557 228.217 192.41C234.007 184.42 244.077 180.41 253.307 184.53C265.527 189.98 268.977 207.9 256.027 214.91C246.467 220.08 235.747 212.14 237.957 201.28C240.007 191.19 257.187 192.31 254.387 204.96C254.376 204.998 254.381 205.04 254.401 205.074C254.42 205.109 254.453 205.134 254.492 205.145C254.53 205.156 254.571 205.151 254.606 205.131C254.64 205.111 254.666 205.078 254.677 205.04Z" fill="#ED5A67"/>
<path d="M98.0265 210.06C95.4965 207.66 88.0665 202.28 91.7965 199.17C94.2465 197.12 96.6365 198.79 98.3665 201.02C108.313 213.753 121.197 222.097 137.017 226.05C137.022 226.049 137.027 226.049 137.03 226.05C137.032 226.052 137.033 226.056 137.032 226.059C137.031 226.063 137.027 226.068 137.022 226.072C137.018 226.076 137.012 226.079 137.007 226.08C121.887 225.72 108.893 220.38 98.0265 210.06Z" fill="#ED5A67"/>
<path d="M206.877 199.78C209.837 196.18 215.617 199.6 211.847 204.08C200.36 217.733 185.57 225.123 167.477 226.25C167.197 226.27 167.127 226.16 167.267 225.92C167.333 225.8 167.437 225.727 167.577 225.7C183.927 222.1 196.467 212.5 206.877 199.78Z" fill="#ED5A67"/>
<path d="M71.0065 228.67C82.5765 237.66 94.3565 243.81 109.327 244.47C117.907 244.84 128.357 241.46 136.027 246.39C136.122 246.454 136.191 246.549 136.222 246.66C136.252 246.77 136.243 246.887 136.195 246.991C136.146 247.095 136.062 247.178 135.958 247.225C135.854 247.273 135.737 247.282 135.627 247.25C126.987 244.64 117.337 252.96 113.807 260.03C113.78 260.086 113.737 260.133 113.683 260.163C113.628 260.192 113.566 260.204 113.503 260.197C113.441 260.189 113.382 260.162 113.334 260.12C113.286 260.077 113.252 260.022 113.237 259.96C112.437 256.713 112.703 253.583 114.037 250.57C114.197 250.197 114.073 250.02 113.667 250.04C102.467 250.6 91.5965 250.12 82.6365 243.69C71.5765 235.75 60.5365 225.73 46.3065 224.77C45.6465 224.723 45.6165 224.567 46.2165 224.3C57.2899 219.34 68.4065 219.187 79.5665 223.84C83.2665 225.39 87.2065 228.17 90.9265 230.38C96.2799 233.567 101.97 235.71 107.997 236.81C114.777 238.05 123.007 236.91 130.507 236.79C140.337 236.65 147.517 238.92 146.647 250.26C146.22 255.853 143.683 260.17 139.037 263.21C138.977 263.247 138.906 263.265 138.835 263.261C138.764 263.258 138.697 263.233 138.642 263.19C138.587 263.147 138.547 263.088 138.528 263.022C138.509 262.955 138.512 262.885 138.537 262.82C141.187 255.58 143.267 244.03 132.947 241.41C125.387 239.48 115.757 242.22 107.717 242.01C97.0432 241.737 87.1565 238.653 78.0565 232.76C75.7765 231.287 73.4599 229.87 71.1065 228.51C70.3399 228.07 70.3065 228.123 71.0065 228.67Z" fill="#ED5A67"/>
<path d="M231.477 229.12C227.337 231.67 222.937 234.78 219.057 236.6C205.737 242.83 194.067 242.48 179.777 240.82C177.09 240.507 174.347 240.657 171.547 241.27C160.167 243.78 163.407 254.88 165.247 262.78C165.38 263.353 165.207 263.467 164.727 263.12C159.873 259.64 157.377 255.103 157.237 249.51C156.847 234.34 171.757 236.39 181.797 237.02C197.087 237.97 204.967 235.42 217.677 227.39C230.15 219.503 243.66 218.45 258.207 224.23C258.263 224.251 258.31 224.29 258.339 224.342C258.369 224.393 258.379 224.454 258.369 224.514C258.358 224.573 258.327 224.628 258.282 224.669C258.236 224.711 258.177 224.735 258.117 224.74C245.527 225.52 237.487 232.08 227.757 239.1C215.797 247.74 205.717 252.26 190.277 249.74C190.204 249.728 190.13 249.736 190.062 249.762C189.993 249.788 189.933 249.832 189.886 249.888C189.84 249.945 189.809 250.013 189.797 250.085C189.784 250.157 189.791 250.231 189.817 250.3C190.907 253.19 191.787 256.72 190.707 259.9C190.54 260.393 190.337 260.407 190.097 259.94C186.577 253.09 176.997 244.6 168.647 247.18C168.24 247.3 168.07 247.153 168.137 246.74C168.197 246.347 168.457 246.03 168.917 245.79C176.427 241.89 185.367 244.8 193.377 244.51C207.85 243.99 220.61 238.94 231.657 229.36C231.688 229.336 231.709 229.301 231.715 229.261C231.721 229.222 231.71 229.182 231.687 229.15C231.663 229.118 231.627 229.097 231.588 229.092C231.548 229.086 231.508 229.096 231.477 229.12Z" fill="#ED5A67"/>
</svg>
