<svg width="866" height="423" viewBox="0 0 866 423" fill="none" xmlns="http://www.w3.org/2000/svg">
<path d="M413.337 22.3C413.997 27.2134 413.077 31.82 410.577 36.12C410.297 36.6 410.143 36.56 410.117 36C410.067 35.03 410.647 33.86 410.637 32.98C410.577 22.57 405.057 14.76 395.607 10.5C393.533 9.56669 393.623 9.28335 395.877 9.65002C408.647 11.73 418.557 16.19 424.627 28.16C424.847 28.5867 425.103 28.61 425.397 28.23C429.717 22.6634 429.013 17.9434 423.287 14.07C423.216 14.0213 423.159 13.9559 423.12 13.8798C423.082 13.8038 423.062 13.7196 423.064 13.635C423.066 13.5503 423.09 13.468 423.132 13.3955C423.174 13.323 423.234 13.2626 423.307 13.22C428.02 10.4467 431.197 6.46002 432.837 1.26002C433.017 0.673352 433.183 0.676695 433.337 1.27003C434.887 7.43003 438.057 9.76003 442.587 13.33C442.953 13.6234 442.943 13.9034 442.556 14.17C436.923 18.05 436.283 22.7334 440.637 28.22C440.694 28.2896 440.767 28.3438 440.85 28.3777C440.934 28.4116 441.024 28.4242 441.114 28.4142C441.203 28.4043 441.289 28.3722 441.362 28.3208C441.436 28.2694 441.496 28.2004 441.537 28.12C447.257 16.28 458.616 10.71 471.306 9.59002C471.357 9.588 471.408 9.60373 471.448 9.63453C471.489 9.66533 471.517 9.70929 471.529 9.75889C471.541 9.80849 471.535 9.86065 471.513 9.90646C471.491 9.95226 471.453 9.98887 471.407 10.01C459.797 14.82 453.007 25.34 456.367 38.04C456.382 38.0755 456.382 38.1154 456.369 38.1515C456.355 38.1876 456.328 38.2171 456.294 38.2338C456.259 38.2505 456.219 38.2532 456.182 38.2414C456.146 38.2295 456.115 38.2039 456.097 38.17C452.723 33.4567 451.41 28.22 452.157 22.46C452.197 22.1467 452.093 22.0867 451.847 22.28C447.327 25.9067 444.463 30.5434 443.257 36.19C443.183 36.53 443.01 36.59 442.737 36.37C438.73 33.19 435.473 29.3667 432.967 24.9C432.753 24.52 432.543 24.5267 432.337 24.92C429.963 29.4867 426.71 33.32 422.577 36.42C422.31 36.62 422.147 36.5567 422.087 36.23C420.953 30.53 418.13 25.8334 413.617 22.14C413.39 21.9467 413.297 22 413.337 22.3Z" fill="#ED5A67"/>
<path d="M345.327 18.7401C345.22 18.7467 345.12 18.8301 345.027 18.9901C341.193 25.5701 340.53 32.6767 343.037 40.3101C345.087 46.5601 348.797 54.3601 347.797 58.4801C347.73 58.7467 347.61 58.7734 347.437 58.5601C342.903 52.9934 338.037 47.7234 332.837 42.7501C324.947 35.2201 321.697 19.0601 330.487 10.9701C330.953 10.5501 331.1 10.6401 330.927 11.2401C329.633 15.8001 329.913 20.2567 331.767 24.6101C331.809 24.706 331.88 24.787 331.969 24.8428C332.058 24.8986 332.162 24.9267 332.267 24.9235C332.372 24.9203 332.473 24.8859 332.559 24.8248C332.644 24.7636 332.71 24.6784 332.747 24.5801C339.597 4.78006 359.537 4.59006 376.757 7.44006C376.847 7.45378 376.93 7.49794 376.991 7.56522C377.053 7.63249 377.09 7.71884 377.096 7.80992C377.101 7.901 377.076 7.99135 377.023 8.06595C376.971 8.14055 376.894 8.19494 376.807 8.22006C369.137 10.4301 359.127 14.7001 354.657 20.9001C346.227 32.5801 358.657 46.7301 353.357 59.3701C353.325 59.4559 353.263 59.5266 353.181 59.568C353.1 59.6093 353.006 59.6182 352.918 59.5928C352.83 59.5674 352.756 59.5096 352.709 59.4311C352.662 59.3526 352.647 59.2593 352.667 59.1701C353.177 55.7801 352.337 53.3001 350.687 49.9301C345.617 39.6601 339.977 30.7601 345.467 18.9401C345.533 18.7934 345.487 18.7267 345.327 18.7401Z" fill="#ED5A67"/>
<path d="M520.517 19.28C526.267 30.78 519.807 41.52 513.787 53.02C513.207 54.1266 513.06 56.29 513.347 59.51C513.407 60.1633 513.247 60.2233 512.867 59.69C510.577 56.44 510.837 49.78 511.687 45.97C512.897 40.53 514.847 33.96 514.237 28.94C512.657 16.02 499.627 12.01 489.207 8.10998C488.8 7.95665 488.81 7.83332 489.237 7.73998C499.117 5.57332 507.98 5.48331 515.827 7.46998C524.657 9.69998 529.777 16.63 533.367 24.76C533.397 24.8308 533.448 24.8913 533.512 24.9342C533.576 24.977 533.651 25.0003 533.728 25.0014C533.805 25.0025 533.881 24.9812 533.947 24.9401C534.012 24.8991 534.064 24.84 534.097 24.77C536.387 20.1 536.017 15.93 535.037 11.27C535.02 11.1998 535.028 11.1267 535.06 11.0624C535.091 10.9981 535.143 10.9463 535.209 10.9152C535.275 10.8842 535.349 10.8756 535.421 10.891C535.493 10.9063 535.559 10.9447 535.607 11C540.6 17.0866 542.053 23.78 539.967 31.08C536.967 41.63 525.327 49.52 518.757 58.49C518.49 58.8566 518.32 58.8166 518.247 58.37C517.88 56.0833 517.897 54.47 518.297 53.53C522.917 42.83 527.887 29.27 520.727 19.16C520.113 18.2933 520.043 18.3333 520.517 19.28Z" fill="#ED5A67"/>
<path d="M368.167 40.1001C370.353 36.1267 373.58 33.3467 377.847 31.76C377.926 31.7302 378.013 31.7301 378.092 31.7597C378.172 31.7893 378.237 31.8467 378.278 31.9211C378.318 31.9955 378.33 32.082 378.311 32.1645C378.293 32.2471 378.245 32.3201 378.177 32.37C363.767 43.17 379.317 67.04 355.357 74.68C354.303 75.0134 354.207 74.8301 355.067 74.1301C371.567 60.6901 354.447 40.08 367.397 24.09C373.617 16.3967 381.92 13.2734 392.307 14.7201C397.413 15.4334 401.007 18 403.087 22.42C405.747 28.06 402.707 35.32 395.867 35.34C388.987 35.35 385.317 25.6001 393.157 23.7501C393.49 23.6701 393.81 23.7134 394.117 23.8801C394.363 24.0134 394.65 24.0601 394.977 24.0201C395.39 23.9601 395.45 23.7834 395.157 23.4901C393.283 21.5967 391.523 20.6534 389.877 20.6601C376.657 20.7467 369.23 27.1634 367.597 39.9101C367.592 39.9788 367.61 40.0472 367.648 40.1045C367.686 40.1618 367.742 40.2048 367.808 40.2266C367.873 40.2484 367.944 40.2478 368.009 40.2248C368.074 40.2019 368.129 40.158 368.167 40.1001Z" fill="#ED5A67"/>
<path d="M498.287 39.88C498.517 27.36 482.227 15.13 470.857 23C470.789 23.045 470.738 23.1103 470.712 23.1865C470.685 23.2627 470.684 23.3458 470.708 23.4238C470.733 23.5018 470.782 23.5706 470.848 23.6202C470.914 23.6699 470.994 23.6978 471.077 23.7C480.307 23.78 478.247 35.08 470.327 35.36C465.967 35.51 462.467 32.04 461.947 27.9C461.037 20.55 467.547 15.69 474.337 14.77C480.897 13.87 486.257 14.73 491.917 18.22C516.097 33.11 492.587 57.6099 510.937 74.3599C511.283 74.6799 511.227 74.7866 510.767 74.68C502.137 72.75 496.756 65.15 495.746 56.72C494.676 47.74 495.277 38.33 487.197 31.75C487.168 31.7243 487.149 31.6897 487.143 31.6518C487.136 31.6139 487.143 31.575 487.161 31.5414C487.18 31.5078 487.209 31.4814 487.245 31.4666C487.28 31.4518 487.32 31.4495 487.357 31.46C491.93 32.96 495.393 35.8133 497.746 40.02C498.093 40.6333 498.273 40.5866 498.287 39.88Z" fill="#ED5A67"/>
<path d="M338.577 118.75C303.897 109 292.427 69.0701 309.557 39.7801C312.777 34.2801 322.417 38.4201 318.017 46.6401C302.927 74.8001 310.387 102.83 338.787 118.24C338.842 118.275 338.884 118.329 338.904 118.392C338.924 118.455 338.921 118.522 338.896 118.583C338.871 118.644 338.825 118.694 338.766 118.725C338.708 118.755 338.641 118.764 338.577 118.75Z" fill="#ED5A67"/>
<path d="M547.067 45.0099C544.847 40.7599 549.547 36.0399 553.957 37.8999C555.997 38.7599 557.077 40.89 558.007 42.83C572.557 73.26 560.987 108.5 527.377 118.84C527.314 118.852 527.25 118.843 527.193 118.813C527.137 118.784 527.092 118.736 527.067 118.678C527.041 118.62 527.036 118.555 527.052 118.493C527.069 118.432 527.105 118.378 527.157 118.34C556.757 100.9 562.857 75.2699 547.067 45.0099Z" fill="#ED5A67"/>
<path d="M432.717 227.33C374.937 203.85 341.207 150.55 347.357 87.83C347.379 87.5856 347.481 87.3553 347.648 87.1746C347.814 86.9939 348.035 86.8728 348.277 86.83C366.257 83.51 379.897 69.7701 377.327 50.5501C377.306 50.3783 377.353 50.2053 377.458 50.0674C377.562 49.9295 377.716 49.8373 377.887 49.8101C394.887 47.1201 412.877 44.1701 429.637 43.9201C449.277 43.6301 468.747 46.8601 488.127 49.7101C488.467 49.7634 488.62 49.9601 488.587 50.3001C486.537 70.0201 498.487 81.9801 516.347 86.6201C516.42 86.6401 516.753 86.67 517.347 86.71C518.047 86.7634 518.44 87.2801 518.527 88.2601C524.187 152.06 491.357 202.61 433.617 227.33C433.317 227.457 433.017 227.457 432.717 227.33ZM353.177 93.21C349.257 150.15 380.187 197.96 431.807 220.36C432.587 220.693 433.37 220.683 434.157 220.33C485.987 197.07 515.397 152.2 513.007 95.18C512.967 94.18 512.8 93.19 512.507 92.21C512.461 92.0574 512.376 91.9186 512.261 91.8067C512.146 91.6947 512.003 91.6133 511.847 91.5701C494.517 86.9801 482.867 73.7401 482.107 55.5501C482.101 55.421 482.05 55.2977 481.963 55.2011C481.875 55.1045 481.756 55.0406 481.627 55.0201C469.447 53.2301 456.317 51.2001 444.857 50.5901C424.627 49.5301 404.947 51.6501 384.967 54.8801C384.656 54.9303 384.372 55.0859 384.162 55.3209C383.953 55.5558 383.831 55.8557 383.817 56.1701C382.977 73.7201 371.337 86.9401 354.607 91.4701C354.216 91.5755 353.868 91.8 353.611 92.112C353.355 92.4241 353.203 92.808 353.177 93.21Z" fill="#ED5A67"/>
<path d="M337.947 115.12C318.317 101.08 311.517 80.4199 321.637 57.7199C325.067 50.0299 332.617 55.3699 329.517 60.4899C318.607 78.4899 323.407 100.67 338.407 114.96C338.547 115.093 338.527 115.19 338.347 115.25C338.247 115.283 338.113 115.24 337.947 115.12Z" fill="#ED5A67"/>
<path d="M536.397 60.26C533.437 55.34 541.047 50.06 544.547 58.16C554.307 80.71 547.647 102.02 527.047 115.55C527.036 115.557 527.025 115.561 527.013 115.563C527.001 115.564 526.988 115.563 526.977 115.559C526.965 115.556 526.955 115.549 526.946 115.541C526.937 115.532 526.931 115.522 526.927 115.51C526.893 115.423 526.863 115.337 526.837 115.25C526.83 115.237 526.857 115.207 526.917 115.16C533.687 109.92 538.277 100.88 540.757 92.9C544.317 81.44 542.457 70.36 536.397 60.26Z" fill="#ED5A67"/>
<path d="M508.207 96.05C510.827 149.3 482.237 194.38 433.407 215.4C433.23 215.476 433.039 215.514 432.846 215.512C432.654 215.511 432.463 215.469 432.287 215.39C383.427 193.55 356.087 150.8 357.637 96.72C357.648 96.3024 357.787 95.8986 358.033 95.5626C358.28 95.2266 358.623 94.9744 359.017 94.84C375.75 89.02 385.523 77.32 388.337 59.74C388.383 59.4533 388.55 59.2933 388.837 59.26C399.837 57.78 411.877 55.79 421.957 55.12C441.187 53.85 458.407 56.61 476.677 59.19C476.971 59.2328 477.243 59.3701 477.452 59.5811C477.661 59.7922 477.796 60.0655 477.837 60.36C479.723 73.8666 486.42 84.0133 497.927 90.8C500.627 92.38 504.377 93.83 507.677 95.29C508.01 95.4367 508.187 95.69 508.207 96.05ZM359.137 97.09C357.047 148.7 385.027 192.59 431.837 213.24C431.87 213.253 432.05 213.367 432.377 213.58C432.777 213.833 433.277 213.817 433.877 213.53C466.207 198.05 490.127 174.95 501.047 140.23C505.447 126.257 507.263 111.933 506.497 97.26C506.483 96.92 506.323 96.6767 506.017 96.53C503.81 95.47 501.627 94.3833 499.467 93.27C486.4 86.55 478.663 75.9 476.257 61.32C476.197 60.9733 475.997 60.7733 475.657 60.72C454.047 57.08 432.637 55.26 410.777 57.9C404.043 58.7133 397.44 59.6 390.967 60.56C390.233 60.6733 389.797 61.0933 389.657 61.82C386.33 79.1867 376.333 90.7067 359.667 96.38C359.327 96.5 359.15 96.7367 359.137 97.09Z" fill="#ED5A67"/>
<path d="M334.137 83.16C335.837 79.51 340.657 80.19 340.847 83.98C340.927 85.6 339.277 88.07 338.507 89.67C335.013 96.9967 335.217 104.15 339.117 111.13C339.557 111.923 339.443 112.013 338.777 111.4C330.927 104.17 329.997 92.06 334.137 83.16Z" fill="#ED5A67"/>
<path d="M525.607 85.73C523.377 81.43 529.927 78.79 531.587 82.46C536.487 93.2867 534.957 103.003 526.997 111.61C526.95 111.658 526.887 111.688 526.819 111.693C526.751 111.698 526.685 111.679 526.632 111.638C526.579 111.598 526.544 111.54 526.533 111.475C526.523 111.411 526.539 111.345 526.577 111.29C532.157 102.4 530.067 94.33 525.607 85.73Z" fill="#ED5A67"/>
<path d="M561.037 116.21C559.507 103.78 567.507 96.9499 576.117 89.5199C576.497 89.1866 576.647 89.2699 576.567 89.7699C575.327 97.6799 573.667 104.41 576.377 112.24C580.007 122.77 585.897 134.19 584.597 145.61C583.103 158.803 576.207 168.02 563.907 173.26C559.627 175.09 554.077 175.38 549.237 176.22C549.169 176.231 549.106 176.26 549.054 176.304C549.002 176.348 548.962 176.405 548.94 176.47C548.917 176.534 548.912 176.603 548.926 176.67C548.939 176.737 548.971 176.799 549.017 176.85C556.19 184.69 557.33 193.437 552.437 203.09C552.177 203.603 552.037 203.573 552.017 203C551.623 192.693 547.433 184.287 539.447 177.78C539.364 177.715 539.303 177.628 539.268 177.529C539.234 177.43 539.228 177.324 539.253 177.222C539.277 177.12 539.33 177.027 539.405 176.954C539.48 176.881 539.574 176.831 539.677 176.81C566.507 171.22 585.387 150.29 571.737 121.61C571.23 120.537 571.147 120.57 571.487 121.71C572.247 124.237 573 127.087 573.747 130.26C578.197 149.3 565.537 163.98 548.817 170.46C548.776 170.479 548.73 170.482 548.687 170.468C548.644 170.455 548.608 170.426 548.585 170.387C548.563 170.348 548.555 170.302 548.565 170.259C548.574 170.215 548.6 170.176 548.637 170.15C567.397 155.81 567.837 131.35 554.557 113.55C554.489 113.471 554.453 113.371 554.456 113.268C554.458 113.164 554.498 113.065 554.569 112.99C554.639 112.914 554.735 112.868 554.838 112.858C554.941 112.849 555.044 112.878 555.127 112.94L560.637 116.47C560.95 116.67 561.083 116.583 561.037 116.21Z" fill="#ED5A67"/>
<path d="M294.797 120.22C291.55 126.42 289.807 132.27 289.567 137.77C288.637 159.47 307.037 173.17 326.437 176.73C326.526 176.747 326.609 176.788 326.676 176.85C326.742 176.912 326.79 176.992 326.813 177.08C326.836 177.168 326.834 177.261 326.806 177.348C326.778 177.434 326.726 177.512 326.657 177.57C319.997 183.07 313.467 192.93 314.107 201.95C314.247 203.897 313.903 203.987 313.077 202.22C308.663 192.78 309.967 184.337 316.987 176.89C317.039 176.835 317.075 176.767 317.091 176.694C317.107 176.62 317.103 176.543 317.078 176.471C317.053 176.4 317.009 176.337 316.951 176.289C316.892 176.241 316.821 176.21 316.747 176.2C304.047 174.47 294.587 172.48 287.027 161.09C275.837 144.23 283.087 130.37 289.327 112.94C292.017 105.44 291.297 97.47 289.237 89.99C289.209 89.8993 289.213 89.8026 289.248 89.715C289.282 89.6273 289.345 89.5534 289.427 89.5045C289.508 89.4557 289.604 89.4347 289.7 89.4447C289.796 89.4547 289.886 89.4952 289.957 89.56C298.307 97.3 306.477 103.25 304.977 116.24C304.967 116.319 304.983 116.399 305.021 116.469C305.059 116.538 305.119 116.594 305.19 116.628C305.262 116.663 305.343 116.673 305.421 116.659C305.499 116.645 305.571 116.607 305.627 116.55C307.167 114.963 308.987 113.803 311.087 113.07C311.158 113.044 311.235 113.041 311.308 113.063C311.38 113.084 311.444 113.129 311.489 113.19C311.534 113.251 311.558 113.325 311.558 113.4C311.557 113.476 311.532 113.55 311.487 113.61C298.287 131.52 298.427 155.93 317.087 169.87C317.138 169.903 317.175 169.954 317.19 170.013C317.205 170.072 317.197 170.134 317.168 170.187C317.138 170.241 317.09 170.281 317.032 170.3C316.975 170.319 316.912 170.315 316.857 170.29C306.407 166.36 296.337 158.05 292.747 147.29C289.757 138.31 291.757 129.64 294.957 120.29C294.96 120.27 294.957 120.25 294.947 120.232C294.937 120.214 294.922 120.201 294.904 120.192C294.886 120.184 294.865 120.183 294.846 120.188C294.826 120.193 294.809 120.204 294.797 120.22Z" fill="#ED5A67"/>
<path d="M446.267 106.8C445.307 106.473 444.337 106.19 443.357 105.95C443.103 105.89 442.9 105.78 442.747 105.62C442.2 105.053 442.223 104.62 442.817 104.32C442.902 104.274 442.995 104.25 443.087 104.25H459.517C459.65 104.25 459.76 104.297 459.847 104.39L460.067 104.6C460.198 104.73 460.285 104.897 460.314 105.079C460.344 105.261 460.316 105.447 460.233 105.613C460.15 105.779 460.017 105.915 459.853 106.002C459.688 106.089 459.501 106.124 459.317 106.1C456.797 105.77 455.307 107.16 455.157 109.74C454.397 123.413 454.387 137.077 455.127 150.73C455.307 154.02 456.057 154.86 459.377 154.96C459.584 154.964 459.784 155.037 459.944 155.169C460.104 155.3 460.215 155.482 460.259 155.685C460.303 155.887 460.277 156.099 460.186 156.285C460.095 156.471 459.944 156.621 459.757 156.71C459.33 156.923 458.687 157.01 457.827 156.97C452.94 156.75 448.017 156.727 443.057 156.9C442.934 156.902 442.814 156.868 442.71 156.803C442.606 156.738 442.524 156.643 442.473 156.532C442.422 156.421 442.405 156.297 442.423 156.176C442.442 156.054 442.495 155.941 442.577 155.85C444.357 153.96 447.037 155.64 447.407 152.06C448.08 145.4 448.28 138.727 448.007 132.04C447.987 131.547 447.73 131.3 447.237 131.3H418.387C418.301 131.3 418.216 131.317 418.137 131.351C418.058 131.384 417.986 131.433 417.927 131.494C417.867 131.556 417.82 131.629 417.789 131.709C417.758 131.789 417.744 131.874 417.747 131.96L418.457 151.94C418.477 152.507 418.675 153.053 419.021 153.503C419.366 153.953 419.844 154.284 420.387 154.45L423.557 155.42C423.72 155.469 423.861 155.576 423.952 155.72C424.044 155.864 424.08 156.037 424.054 156.206C424.029 156.375 423.943 156.529 423.813 156.64C423.683 156.751 423.517 156.811 423.347 156.81L406.047 156.73C405.693 156.723 405.537 156.543 405.577 156.19C405.61 155.89 405.74 155.637 405.967 155.43C406.677 154.78 408.957 154.76 410.167 153.89C410.303 153.789 410.417 153.661 410.503 153.515C410.589 153.369 410.645 153.207 410.667 153.04C410.807 151.813 410.913 149.883 410.987 147.25C411.36 133.463 411.353 121.69 410.967 111.93C410.847 108.82 411.087 106.46 407.157 106.02C406.243 105.92 405.72 105.537 405.587 104.87C405.57 104.795 405.571 104.718 405.589 104.644C405.607 104.57 405.642 104.5 405.691 104.441C405.74 104.381 405.801 104.333 405.872 104.3C405.942 104.267 406.019 104.25 406.097 104.25H423.107C423.265 104.247 423.419 104.301 423.54 104.402C423.662 104.502 423.744 104.643 423.771 104.8C423.799 104.957 423.77 105.119 423.691 105.258C423.611 105.397 423.486 105.504 423.337 105.56L419.687 106.9C419.345 107.028 419.049 107.253 418.836 107.549C418.622 107.844 418.501 108.196 418.487 108.56L417.767 127.37C417.762 127.474 417.779 127.577 417.816 127.674C417.852 127.771 417.907 127.859 417.978 127.934C418.049 128.009 418.134 128.068 418.229 128.109C418.323 128.149 418.424 128.17 418.527 128.17L447.457 128.2C447.897 128.2 448.12 127.98 448.127 127.54C448.187 121.54 448.737 112.24 446.927 107.44C446.87 107.29 446.782 107.155 446.667 107.044C446.553 106.933 446.416 106.85 446.267 106.8Z" fill="#ED5A67"/>
<path d="M319.547 131.52C319.28 131.613 319.06 131.8 318.887 132.08C313.907 140.16 316.747 149.34 322.687 156.01C322.74 156.07 322.812 156.11 322.891 156.126C322.969 156.141 323.051 156.131 323.123 156.096C323.195 156.061 323.254 156.003 323.291 155.932C323.328 155.861 323.34 155.779 323.327 155.7C322.607 152.087 323.303 148.8 325.417 145.84C325.737 145.387 325.863 145.437 325.797 145.99C323.447 166.04 342.687 164.83 352.607 174.71C354.917 177.01 357.837 180.59 358.497 183.95C358.63 184.61 358.493 184.673 358.087 184.14C345.007 166.74 318.057 171.34 310.307 148.59C307.957 141.71 308.467 132.05 314.377 126.8C322.687 119.43 336.357 127.78 331.037 138.03C327.447 144.93 314.747 140.18 319.837 131.88C320.077 131.493 319.98 131.373 319.547 131.52Z" fill="#ED5A67"/>
<path d="M543.267 155.88C548.607 150.25 552.747 138.78 546.767 132.08C546.367 131.627 546.243 131.693 546.397 132.28C546.737 133.56 547.387 134.82 547.297 136.05C547.017 140.25 541.527 142.26 538.257 140.94C526.117 136.06 540.647 114.8 552.657 127.71C557.257 132.66 557.847 141.84 555.877 147.77C547.827 172.08 519.447 166.75 507.827 184.44C507.797 184.488 507.752 184.524 507.699 184.54C507.646 184.556 507.588 184.551 507.537 184.527C507.486 184.502 507.445 184.46 507.421 184.407C507.397 184.354 507.392 184.295 507.407 184.24C510.927 173 519.677 170.78 528.817 165.69C537.207 161.01 541.627 155.54 540.067 145.76C540.052 145.704 540.059 145.645 540.085 145.593C540.111 145.541 540.155 145.501 540.208 145.479C540.262 145.457 540.322 145.455 540.376 145.473C540.431 145.492 540.477 145.53 540.507 145.58C542.62 148.573 543.343 151.907 542.677 155.58C542.666 155.652 542.679 155.726 542.713 155.79C542.747 155.855 542.8 155.907 542.865 155.94C542.93 155.974 543.003 155.985 543.075 155.975C543.147 155.964 543.214 155.931 543.267 155.88Z" fill="#ED5A67"/>
<path d="M345.227 164.24C340.817 161.37 335.677 158.44 333.697 153.24C333.583 152.94 333.567 152.637 333.647 152.33C334.687 148.44 338.687 148.56 340.397 152.01C345.997 163.3 355.977 165.08 359.667 177.45C359.676 177.501 359.668 177.554 359.644 177.599C359.619 177.645 359.58 177.682 359.533 177.702C359.485 177.723 359.432 177.727 359.382 177.714C359.332 177.701 359.288 177.671 359.257 177.63C355.637 171.59 351.747 168.49 345.227 164.24Z" fill="#ED5A67"/>
<path d="M531.447 150.8C534.317 154.23 527.847 159.47 525.397 161.07C518.177 165.77 511.457 169.66 506.897 177.41C506.863 177.463 506.812 177.502 506.752 177.52C506.692 177.538 506.628 177.534 506.571 177.509C506.513 177.483 506.467 177.438 506.441 177.381C506.414 177.325 506.409 177.26 506.427 177.2C510.107 165.2 520.717 162.48 525.567 151.99C526.797 149.31 529.397 148.36 531.447 150.8Z" fill="#ED5A67"/>
<path d="M360.037 195.94C360.55 192.047 362.357 188.92 365.457 186.56C365.529 186.504 365.617 186.473 365.709 186.472C365.8 186.471 365.889 186.5 365.963 186.555C366.036 186.609 366.09 186.686 366.116 186.773C366.142 186.861 366.139 186.954 366.107 187.04C360.157 203.46 373.127 218.25 387.707 223.81C400.197 228.58 412.937 228.92 426.117 229.67C426.237 229.677 426.293 229.74 426.287 229.86C426.28 230.007 426.237 230.083 426.157 230.09C411.607 231.7 394.897 233.27 380.977 228.01C366.367 222.49 360.197 211.63 351.547 198.55C348.817 194.42 342.137 189.77 336.707 191.64C330.907 193.63 327.887 199.16 330.127 205.21C330.187 205.377 330.31 205.447 330.497 205.42C330.69 205.393 330.763 205.287 330.717 205.1C327.427 191.45 347.497 190.62 347.307 204.29C347.047 223.6 317.417 218.09 320.907 198.42C322.707 188.24 331.917 181.77 342.087 183.13C349.707 184.14 355.427 189.56 359.467 196.06C359.773 196.547 359.963 196.507 360.037 195.94Z" fill="#ED5A67"/>
<path d="M535.677 205.04C537.627 199.98 535.877 195.1 531.197 192.46C519.807 186.04 511.047 203.77 506.387 210.76C491.057 233.76 464.017 233.46 439.687 230.01C439.62 230.006 439.558 229.976 439.514 229.926C439.47 229.876 439.448 229.811 439.452 229.745C439.456 229.679 439.486 229.617 439.535 229.573C439.585 229.529 439.65 229.506 439.717 229.51C452.737 229.04 466.817 228.6 478.807 223.73C493.427 217.78 505.647 203.3 499.757 186.51C499.738 186.467 499.735 186.42 499.746 186.375C499.758 186.33 499.784 186.29 499.82 186.262C499.857 186.233 499.902 186.218 499.948 186.217C499.994 186.217 500.04 186.232 500.077 186.26C503.39 188.56 505.307 191.727 505.827 195.76C505.834 195.834 505.863 195.903 505.911 195.96C505.958 196.017 506.021 196.058 506.092 196.078C506.163 196.099 506.239 196.097 506.309 196.074C506.379 196.052 506.441 196.008 506.487 195.95C507.48 194.737 508.39 193.557 509.217 192.41C515.007 184.42 525.077 180.41 534.307 184.53C546.527 189.98 549.977 207.9 537.027 214.91C527.467 220.08 516.747 212.14 518.957 201.28C521.007 191.19 538.187 192.31 535.387 204.96C535.376 204.998 535.381 205.04 535.401 205.074C535.42 205.109 535.453 205.134 535.492 205.145C535.53 205.156 535.571 205.151 535.606 205.131C535.64 205.111 535.666 205.078 535.677 205.04Z" fill="#ED5A67"/>
<path d="M379.027 210.06C376.497 207.66 369.067 202.28 372.797 199.17C375.247 197.12 377.637 198.79 379.367 201.02C389.313 213.753 402.197 222.097 418.017 226.05C418.022 226.049 418.027 226.049 418.03 226.05C418.032 226.052 418.033 226.056 418.032 226.059C418.031 226.063 418.027 226.068 418.022 226.072C418.018 226.076 418.012 226.079 418.007 226.08C402.887 225.72 389.893 220.38 379.027 210.06Z" fill="#ED5A67"/>
<path d="M487.877 199.78C490.837 196.18 496.617 199.6 492.847 204.08C481.36 217.733 466.57 225.123 448.477 226.25C448.197 226.27 448.127 226.16 448.267 225.92C448.333 225.8 448.437 225.727 448.577 225.7C464.927 222.1 477.467 212.5 487.877 199.78Z" fill="#ED5A67"/>
<path d="M352.007 228.67C363.577 237.66 375.357 243.81 390.327 244.47C398.907 244.84 409.357 241.46 417.027 246.39C417.122 246.454 417.191 246.549 417.222 246.66C417.252 246.77 417.243 246.887 417.195 246.991C417.146 247.095 417.062 247.178 416.958 247.225C416.854 247.273 416.737 247.282 416.627 247.25C407.987 244.64 398.337 252.96 394.807 260.03C394.78 260.086 394.737 260.133 394.683 260.163C394.628 260.192 394.566 260.204 394.503 260.197C394.441 260.189 394.382 260.162 394.334 260.12C394.286 260.077 394.252 260.022 394.237 259.96C393.437 256.713 393.703 253.583 395.037 250.57C395.197 250.197 395.073 250.02 394.667 250.04C383.467 250.6 372.597 250.12 363.637 243.69C352.577 235.75 341.537 225.73 327.307 224.77C326.647 224.723 326.617 224.567 327.217 224.3C338.29 219.34 349.407 219.187 360.567 223.84C364.267 225.39 368.207 228.17 371.927 230.38C377.28 233.567 382.97 235.71 388.997 236.81C395.777 238.05 404.007 236.91 411.507 236.79C421.337 236.65 428.517 238.92 427.647 250.26C427.22 255.853 424.683 260.17 420.037 263.21C419.977 263.247 419.906 263.265 419.835 263.261C419.764 263.258 419.697 263.233 419.642 263.19C419.587 263.147 419.547 263.088 419.528 263.022C419.509 262.955 419.512 262.885 419.537 262.82C422.187 255.58 424.267 244.03 413.947 241.41C406.387 239.48 396.757 242.22 388.717 242.01C378.043 241.737 368.157 238.653 359.057 232.76C356.777 231.287 354.46 229.87 352.107 228.51C351.34 228.07 351.307 228.123 352.007 228.67Z" fill="#ED5A67"/>
<path d="M512.477 229.12C508.337 231.67 503.937 234.78 500.057 236.6C486.737 242.83 475.067 242.48 460.777 240.82C458.09 240.507 455.347 240.657 452.547 241.27C441.167 243.78 444.407 254.88 446.247 262.78C446.38 263.353 446.207 263.467 445.727 263.12C440.873 259.64 438.377 255.103 438.237 249.51C437.847 234.34 452.757 236.39 462.797 237.02C478.087 237.97 485.967 235.42 498.677 227.39C511.15 219.503 524.66 218.45 539.207 224.23C539.263 224.251 539.31 224.29 539.339 224.342C539.369 224.393 539.379 224.454 539.369 224.514C539.358 224.573 539.327 224.628 539.282 224.669C539.236 224.711 539.177 224.735 539.117 224.74C526.527 225.52 518.487 232.08 508.757 239.1C496.797 247.74 486.717 252.26 471.277 249.74C471.204 249.728 471.13 249.736 471.062 249.762C470.993 249.788 470.933 249.832 470.886 249.888C470.84 249.945 470.809 250.013 470.797 250.085C470.784 250.157 470.791 250.231 470.817 250.3C471.907 253.19 472.787 256.72 471.707 259.9C471.54 260.393 471.337 260.407 471.097 259.94C467.577 253.09 457.997 244.6 449.647 247.18C449.24 247.3 449.07 247.153 449.137 246.74C449.197 246.347 449.457 246.03 449.917 245.79C457.427 241.89 466.367 244.8 474.377 244.51C488.85 243.99 501.61 238.94 512.657 229.36C512.688 229.336 512.709 229.301 512.715 229.261C512.721 229.222 512.71 229.182 512.687 229.15C512.663 229.118 512.627 229.097 512.588 229.092C512.548 229.086 512.508 229.096 512.477 229.12Z" fill="#ED5A67"/>
<path d="M89.5576 363.944C86.454 363.279 83.5199 361.972 80.9226 360.098C78.3253 358.224 76.1157 355.819 74.4201 353.022C72.7244 350.224 71.5759 347.088 71.04 343.793C70.5042 340.498 70.5915 337.108 71.2971 333.817C72.722 327.171 76.5784 321.33 82.018 317.581C87.4576 313.831 94.0347 312.479 100.303 313.823C103.406 314.488 106.34 315.795 108.938 317.67C111.535 319.544 113.744 321.948 115.44 324.746C117.136 327.543 118.284 330.679 118.82 333.974C119.356 337.269 119.269 340.659 118.563 343.95C117.138 350.597 113.282 356.437 107.842 360.187C102.403 363.936 95.8254 365.288 89.5576 363.944ZM79.7901 348.424C83.9501 363.414 104.24 365.724 109.51 350.584C113.58 338.874 111.92 317.004 95.0101 317.004C78.2101 317.004 76.5601 336.774 79.7901 348.424Z" fill="#ED5A67"/>
<path d="M166.81 349.614C174.037 338.514 180.883 327.067 187.35 315.274C187.617 314.794 188.023 314.284 188.57 313.744C188.761 313.555 189.004 313.429 189.268 313.38C189.531 313.331 189.804 313.363 190.049 313.471C190.295 313.578 190.502 313.757 190.645 313.984C190.788 314.211 190.859 314.476 190.85 314.744C190.443 329.63 190.867 344.49 192.12 359.324C192.16 359.797 192.403 360.12 192.85 360.294L196.96 361.834C197.014 361.855 197.063 361.888 197.104 361.93C197.144 361.971 197.175 362.021 197.194 362.075C197.213 362.13 197.22 362.187 197.214 362.244C197.208 362.301 197.19 362.355 197.16 362.404L196.98 362.704C196.867 362.89 196.7 362.984 196.48 362.984L181.4 362.924C181.073 362.924 180.887 362.76 180.84 362.434C180.767 361.894 181.027 361.577 181.62 361.484C185.56 360.874 185.18 358.704 185.2 355.104C185.24 346.57 184.897 338.277 184.17 330.224C184.083 329.237 183.763 329.154 183.21 329.974C176.803 339.447 171.163 349.354 166.29 359.694C166.155 359.984 165.939 360.23 165.668 360.4C165.397 360.571 165.082 360.659 164.762 360.655C164.442 360.651 164.13 360.554 163.863 360.377C163.597 360.199 163.387 359.948 163.26 359.654C158.927 349.72 154.067 340.067 148.68 330.694C148.626 330.602 148.543 330.529 148.446 330.485C148.348 330.441 148.239 330.429 148.135 330.45C148.031 330.471 147.936 330.524 147.866 330.602C147.795 330.68 147.751 330.778 147.74 330.884C146.753 339.79 146.133 348.764 145.88 357.804C145.74 362.724 148.87 359.994 149.99 362.144C150.033 362.227 150.053 362.321 150.05 362.415C150.046 362.509 150.018 362.601 149.969 362.681C149.92 362.761 149.851 362.827 149.769 362.873C149.687 362.919 149.594 362.944 149.5 362.944H137.42C137.007 362.944 136.863 362.747 136.99 362.354L137.13 361.924C137.174 361.781 137.262 361.655 137.38 361.565C137.499 361.476 137.642 361.426 137.79 361.424C140.583 361.377 142.113 360.16 142.38 357.774C143.967 343.527 145.06 329.227 145.66 314.874C145.67 314.658 145.736 314.449 145.852 314.268C145.968 314.087 146.129 313.941 146.32 313.844C147.5 313.254 148.22 313.794 148.71 314.884C153.943 326.61 159.663 338.177 165.87 349.584C165.914 349.667 165.979 349.737 166.059 349.787C166.139 349.837 166.232 349.865 166.327 349.868C166.422 349.871 166.516 349.849 166.601 349.804C166.686 349.76 166.758 349.694 166.81 349.614Z" fill="#ED5A67"/>
<path d="M305.54 330.454C304.233 340.207 303.533 350.004 303.44 359.844C303.437 360.018 303.488 360.188 303.587 360.33C303.686 360.472 303.827 360.578 303.99 360.634L307.06 361.704C307.2 361.755 307.317 361.854 307.392 361.983C307.466 362.113 307.494 362.264 307.469 362.411C307.444 362.558 307.368 362.691 307.255 362.789C307.142 362.886 306.999 362.941 306.85 362.944H295.06C294.913 362.94 294.771 362.884 294.662 362.785C294.552 362.686 294.481 362.551 294.463 362.406C294.444 362.26 294.479 362.114 294.562 361.994C294.644 361.874 294.768 361.789 294.91 361.754L298.16 360.934C298.342 360.888 298.51 360.783 298.64 360.634C299.387 359.76 299.81 358.924 299.91 358.124C301.53 345.997 302.643 332.344 303.25 317.164C303.257 316.87 303.227 316.394 303.16 315.734C302.973 314.054 303.727 313.437 305.42 313.884C305.608 313.933 305.781 314.024 305.928 314.148C306.075 314.273 306.192 314.429 306.27 314.604C311.577 326.577 317.36 338.317 323.62 349.824C323.82 350.204 324.04 350.214 324.28 349.854C331.747 338.674 338.573 327.157 344.76 315.304C345.43 314.024 346.8 313.214 348.12 313.734C348.46 313.867 348.627 314.12 348.62 314.494C348.16 329.274 348.537 344.03 349.75 358.764C349.788 359.241 349.973 359.696 350.278 360.066C350.584 360.436 350.997 360.704 351.46 360.834L354.68 361.714C354.822 361.759 354.943 361.852 355.022 361.978C355.101 362.103 355.133 362.253 355.113 362.4C355.093 362.547 355.021 362.683 354.911 362.782C354.8 362.881 354.659 362.939 354.51 362.944H338.83C338.693 362.943 338.56 362.893 338.456 362.803C338.352 362.714 338.283 362.59 338.261 362.455C338.24 362.319 338.267 362.18 338.338 362.063C338.409 361.946 338.52 361.857 338.65 361.814L341.43 360.914C341.77 360.803 342.067 360.591 342.282 360.307C342.497 360.022 342.618 359.679 342.63 359.324C342.99 349.49 342.743 339.68 341.89 329.894C341.881 329.802 341.844 329.714 341.784 329.644C341.724 329.574 341.643 329.524 341.554 329.501C341.464 329.478 341.37 329.483 341.283 329.516C341.196 329.548 341.122 329.607 341.07 329.684C334.723 338.95 329.103 348.744 324.21 359.064C324.09 359.304 323.92 359.51 323.7 359.684C323.46 359.877 323.287 360.017 323.18 360.104C322.173 360.904 321.41 360.714 320.89 359.534C316.463 349.574 311.567 339.837 306.2 330.324C306.165 330.259 306.111 330.207 306.044 330.176C305.978 330.145 305.903 330.136 305.83 330.15C305.757 330.165 305.69 330.202 305.638 330.256C305.586 330.31 305.552 330.38 305.54 330.454Z" fill="#ED5A67"/>
<path d="M457.17 345.564C452.33 339.214 441.71 340.064 439.72 330.524C436.61 315.634 454.73 310.064 465.27 316.254C465.623 316.46 465.733 316.757 465.6 317.144L463.9 322.174C463.816 322.432 463.645 322.653 463.416 322.799C463.187 322.945 462.914 323.007 462.645 322.974C462.375 322.941 462.125 322.815 461.938 322.618C461.751 322.42 461.639 322.165 461.62 321.894C460.99 314.154 448 315.224 446.06 323.294C443.59 333.604 455.28 334.354 460.87 338.514C467.51 343.464 467.45 351.894 462.38 357.894C456.38 364.994 445.39 365.624 437.27 362.034C437.147 361.978 437.048 361.879 436.995 361.755C436.941 361.631 436.936 361.491 436.98 361.364L438.79 356.134C438.859 355.93 438.991 355.753 439.166 355.628C439.34 355.503 439.55 355.436 439.765 355.436C439.98 355.436 440.19 355.503 440.365 355.628C440.539 355.753 440.671 355.93 440.74 356.134C444.79 367.654 466.65 358.024 457.17 345.564Z" fill="#ED5A67"/>
<path d="M401.57 345.694H387.5C387.032 345.697 386.576 345.845 386.196 346.117C385.817 346.389 385.531 346.773 385.38 347.214L381.28 359.134C381.231 359.271 381.218 359.42 381.242 359.567C381.267 359.713 381.328 359.853 381.42 359.974C382.16 360.927 383.16 361.42 384.42 361.454C384.793 361.467 385.037 361.654 385.15 362.014L385.26 362.354C385.38 362.747 385.237 362.944 384.83 362.944H372.49C372.42 362.944 372.351 362.93 372.286 362.901C372.222 362.872 372.165 362.83 372.118 362.778C372.07 362.725 372.035 362.662 372.013 362.594C371.991 362.527 371.983 362.455 371.99 362.384C372.023 362.097 372.13 361.87 372.31 361.704C373.57 360.554 376.23 360.944 377.01 359.164C383.53 344.277 389.493 329.42 394.9 314.594C395.016 314.273 395.227 313.996 395.505 313.799C395.784 313.603 396.116 313.497 396.457 313.496C396.797 313.495 397.13 313.599 397.41 313.793C397.69 313.988 397.903 314.264 398.02 314.584C403.75 330.114 408.71 346.094 414.75 358.664C415.59 360.41 417.223 361.37 419.65 361.544C419.997 361.57 420.17 361.757 420.17 362.104C420.17 362.717 419.947 363.024 419.5 363.024C415.76 363.05 412.02 363.174 408.28 363.394C407.94 363.414 407.72 363.264 407.62 362.944L402.32 346.244C402.207 345.877 401.957 345.694 401.57 345.694ZM387.41 342.014C387.387 342.065 387.377 342.121 387.381 342.177C387.384 342.232 387.402 342.286 387.432 342.334C387.461 342.381 387.502 342.421 387.551 342.449C387.599 342.477 387.654 342.492 387.71 342.494L400.51 342.894C400.566 342.896 400.622 342.884 400.672 342.859C400.722 342.834 400.766 342.798 400.798 342.752C400.831 342.707 400.852 342.654 400.859 342.598C400.866 342.543 400.86 342.486 400.84 342.434L394.94 326.394C394.917 326.33 394.875 326.275 394.82 326.235C394.765 326.196 394.7 326.173 394.632 326.171C394.564 326.169 394.497 326.187 394.44 326.223C394.383 326.259 394.337 326.312 394.31 326.374L387.41 342.014Z" fill="#ED5A67"/>
<path d="M781.4 345.674L766.76 345.734C766.433 345.736 766.114 345.84 765.847 346.032C765.581 346.223 765.379 346.493 765.27 346.804L761.02 359.134C760.887 359.52 760.97 359.85 761.27 360.124C762.117 360.89 763.127 361.344 764.3 361.484C764.64 361.524 764.843 361.717 764.91 362.064L765 362.514C765.012 362.576 765.01 362.641 764.994 362.703C764.979 362.765 764.95 362.823 764.909 362.872C764.869 362.92 764.819 362.959 764.762 362.986C764.705 363.012 764.643 363.025 764.58 363.024L752.04 362.904C751.899 362.899 751.764 362.843 751.66 362.747C751.556 362.651 751.49 362.52 751.475 362.38C751.459 362.239 751.494 362.097 751.574 361.981C751.654 361.864 751.773 361.78 751.91 361.744C754.41 361.154 756.11 360.404 757.23 357.884C763.41 343.93 769.11 329.784 774.33 315.444C775.05 313.474 777.29 312.684 778.08 315.164C782.247 328.277 787.013 341.157 792.38 353.804C794.09 357.814 794.6 360.594 799.38 361.794C799.527 361.831 799.655 361.92 799.742 362.044C799.828 362.168 799.867 362.319 799.851 362.47C799.835 362.62 799.766 362.76 799.656 362.864C799.545 362.967 799.401 363.027 799.25 363.034L788.01 363.324C787.61 363.33 787.35 363.144 787.23 362.764L782.04 346.144C781.996 346.007 781.91 345.888 781.795 345.803C781.68 345.719 781.542 345.673 781.4 345.674ZM767.21 341.964C767.184 342.023 767.173 342.088 767.178 342.153C767.182 342.218 767.203 342.281 767.237 342.336C767.272 342.391 767.319 342.437 767.375 342.47C767.432 342.502 767.495 342.521 767.56 342.524L780.28 342.864C780.345 342.864 780.409 342.849 780.467 342.82C780.525 342.79 780.575 342.747 780.612 342.694C780.65 342.641 780.674 342.579 780.682 342.515C780.69 342.45 780.683 342.384 780.66 342.324L774.72 326.514C774.694 326.436 774.644 326.369 774.579 326.32C774.513 326.272 774.434 326.245 774.352 326.242C774.27 326.24 774.19 326.263 774.122 326.308C774.053 326.353 774 326.418 773.97 326.494L767.21 341.964Z" fill="#ED5A67"/>
<path d="M826.28 360.664L830.1 361.774C830.234 361.817 830.348 361.906 830.423 362.025C830.497 362.145 830.528 362.286 830.509 362.425C830.49 362.565 830.422 362.693 830.318 362.788C830.214 362.882 830.081 362.938 829.94 362.944H817.01C816.936 362.945 816.863 362.927 816.797 362.893C816.732 362.858 816.675 362.807 816.634 362.745C816.592 362.682 816.567 362.61 816.559 362.535C816.551 362.46 816.562 362.384 816.59 362.314C817.44 360.244 821.24 362.734 821.42 358.134C822.007 343.574 821.907 329.244 821.12 315.144C821.104 314.815 821.192 314.49 821.371 314.214C821.551 313.938 821.813 313.726 822.121 313.609C822.428 313.491 822.765 313.474 823.082 313.559C823.4 313.644 823.683 313.828 823.89 314.084C834.063 326.73 844.717 338.967 855.85 350.794C856.377 351.347 856.637 351.244 856.63 350.484C856.563 340.684 856.447 330.664 856.28 320.424C856.24 318.157 855.083 317.01 852.81 316.984C852.797 316.984 852.709 316.955 852.561 316.901C852.413 316.848 852.217 316.774 852.01 316.694C851.39 316.454 851.147 316.007 851.28 315.354C851.309 315.209 851.392 315.081 851.512 314.994C851.632 314.907 851.781 314.868 851.93 314.884C855.77 315.324 859.61 315.337 863.45 314.924C863.797 314.884 864.127 314.944 864.44 315.104C865.193 315.49 865.21 315.997 864.49 316.624C864.263 316.817 864.003 316.91 863.71 316.904C861.337 316.85 860.113 318.027 860.04 320.434C859.613 334.194 859.623 348.347 860.07 362.894C860.097 363.774 859.67 364.18 858.79 364.114C858.08 364.054 857.17 363.544 856.67 362.894C846.803 350.38 836.36 338.417 825.34 327.004C825.286 326.949 825.217 326.912 825.142 326.898C825.067 326.883 824.99 326.892 824.92 326.922C824.849 326.952 824.79 327.003 824.749 327.067C824.708 327.132 824.688 327.207 824.69 327.284C825.15 338.084 824.45 349.134 825.62 359.874C825.64 360.057 825.714 360.23 825.831 360.37C825.949 360.511 826.105 360.613 826.28 360.664Z" fill="#ED5A67"/>
<path d="M599.24 317.334L596.4 316.744C596.2 316.699 596.022 316.583 595.902 316.417C595.781 316.251 595.725 316.047 595.745 315.843C595.765 315.638 595.858 315.448 596.009 315.309C596.159 315.169 596.355 315.089 596.56 315.084C602.6 315.044 608.573 314.77 614.48 314.264C631.8 312.774 635.18 334.354 617.8 338.764C617.734 338.78 617.672 338.812 617.62 338.857C617.568 338.901 617.528 338.958 617.503 339.022C617.477 339.085 617.467 339.154 617.474 339.222C617.48 339.29 617.503 339.356 617.54 339.413C621.75 346.213 628.18 358.764 635.72 361.804C635.849 361.854 635.956 361.947 636.023 362.068C636.09 362.189 636.112 362.33 636.086 362.465C636.06 362.601 635.987 362.723 635.88 362.811C635.773 362.898 635.638 362.945 635.5 362.944H625.13C624.95 362.944 624.773 362.897 624.617 362.807C624.461 362.718 624.331 362.589 624.24 362.434L610.07 338.694C609.995 338.567 609.954 338.423 609.952 338.275C609.95 338.128 609.986 337.982 610.058 337.854C610.13 337.725 610.235 337.617 610.362 337.542C610.488 337.466 610.633 337.426 610.78 337.424C627.88 337.054 625.85 313.474 607.77 317.984C607.437 318.064 607.273 318.274 607.28 318.614L607.33 358.454C607.331 359.01 607.515 359.552 607.855 359.995C608.194 360.437 608.671 360.757 609.21 360.904L612.18 361.714C612.327 361.754 612.456 361.847 612.541 361.975C612.626 362.103 612.662 362.257 612.642 362.408C612.623 362.559 612.549 362.697 612.434 362.796C612.319 362.894 612.172 362.947 612.02 362.944H596.5C596.419 362.943 596.34 362.921 596.271 362.881C596.201 362.84 596.143 362.783 596.101 362.714C596.06 362.644 596.038 362.566 596.036 362.485C596.034 362.404 596.052 362.325 596.09 362.254C596.76 360.994 599.11 361.404 600.31 360.134C600.537 359.894 600.66 359.61 600.68 359.284C601.513 345.857 601.517 332.434 600.69 319.014C600.637 318.087 600.153 317.527 599.24 317.334Z" fill="#ED5A67"/>
<path d="M651.93 316.514C651.45 316.387 651.2 316.1 651.18 315.654C651.176 315.562 651.191 315.471 651.223 315.386C651.255 315.3 651.305 315.222 651.369 315.157C651.433 315.091 651.509 315.039 651.593 315.004C651.678 314.969 651.769 314.952 651.86 314.954C657.58 315 663.377 314.797 669.25 314.344C690.92 312.684 687.66 342.154 666.69 339.514C666.05 339.434 665.61 339.204 665.37 338.824C665.117 338.437 665.087 338.014 665.28 337.554C665.407 337.254 665.63 337.107 665.95 337.114C673.777 337.287 677.457 333.307 676.99 325.174C676.54 317.384 669.18 316.764 663.29 317.984C662.937 318.057 662.757 318.274 662.75 318.634C662.47 327.534 662.477 339.97 662.77 355.944C662.797 357.584 662.92 358.88 663.14 359.834C663.227 360.22 663.457 360.477 663.83 360.604L667.18 361.774C667.307 361.823 667.413 361.914 667.48 362.032C667.547 362.15 667.572 362.287 667.55 362.421C667.527 362.555 667.459 362.677 667.357 362.767C667.256 362.857 667.126 362.908 666.99 362.914L651.96 363.004C651.82 363.006 651.682 362.965 651.566 362.886C651.45 362.807 651.361 362.694 651.311 362.563C651.262 362.431 651.255 362.287 651.29 362.152C651.326 362.016 651.403 361.894 651.51 361.804C651.743 361.604 652.07 361.5 652.49 361.494C656.4 361.414 656.03 357.364 656.13 354.624C656.37 347.537 656.397 338.227 656.21 326.694C656.157 323.44 655.927 320.704 655.52 318.484C655.492 318.319 655.426 318.163 655.327 318.028C655.228 317.892 655.099 317.781 654.95 317.704C653.977 317.19 652.97 316.794 651.93 316.514Z" fill="#ED5A67"/>
<path d="M226.18 336.904C231.29 337.014 237.95 338.464 238.92 332.864C238.945 332.703 239.025 332.556 239.147 332.447C239.269 332.337 239.425 332.273 239.59 332.264L240.75 332.194C240.83 332.191 240.909 332.204 240.983 332.234C241.057 332.263 241.123 332.308 241.178 332.365C241.233 332.422 241.275 332.489 241.301 332.563C241.328 332.637 241.337 332.716 241.33 332.794L240.19 344.864C240.137 345.41 239.84 345.62 239.3 345.494L238.27 345.244C238.093 345.2 237.939 345.09 237.842 344.937C237.744 344.784 237.712 344.6 237.75 344.424C238.96 338.304 230.34 339.364 226.18 339.944C225.86 339.99 225.7 340.177 225.7 340.504C225.713 344.057 225.833 347.564 226.06 351.024C226.42 356.584 226.13 359.784 232.51 360.134C238.09 360.434 243.37 361.034 245.18 355.664C245.266 355.392 245.45 355.161 245.696 355.017C245.943 354.873 246.234 354.826 246.513 354.884C246.792 354.943 247.04 355.103 247.207 355.334C247.375 355.565 247.451 355.85 247.42 356.134L246.87 362.284C246.853 362.465 246.769 362.633 246.636 362.755C246.503 362.877 246.329 362.944 246.15 362.944H215.01C214.918 362.943 214.828 362.915 214.751 362.863C214.675 362.811 214.615 362.738 214.58 362.653C214.545 362.568 214.536 362.474 214.553 362.383C214.571 362.293 214.615 362.209 214.68 362.144L215.06 361.764C215.234 361.584 215.473 361.477 215.73 361.464C216.83 361.41 217.823 361.05 218.71 360.384C218.99 360.177 219.137 359.897 219.15 359.544C219.903 345.99 219.913 332.437 219.18 318.884C219.163 318.571 219.052 318.27 218.861 318.019C218.671 317.768 218.409 317.578 218.11 317.474L214.83 316.354C214.702 316.308 214.593 316.219 214.523 316.102C214.453 315.985 214.425 315.848 214.445 315.714C214.466 315.58 214.533 315.459 214.634 315.371C214.735 315.283 214.865 315.234 215 315.234L245.3 314.784C245.613 314.784 245.74 314.934 245.68 315.234L244.14 323.054C244.091 323.302 243.956 323.525 243.758 323.684C243.56 323.842 243.313 323.924 243.06 323.917C242.806 323.91 242.564 323.813 242.376 323.644C242.187 323.475 242.065 323.245 242.03 322.994L241.59 319.724C241.537 319.35 241.337 319.09 240.99 318.944C237.58 317.514 230.32 318.084 226.55 318.294C226.21 318.307 226.037 318.484 226.03 318.824L225.67 336.384C225.663 336.724 225.833 336.897 226.18 336.904Z" fill="#ED5A67"/>
<path d="M502.21 318.284C496.75 317.937 492.987 318.02 490.92 318.534C487 319.524 487.97 322.624 485.7 324.544C485.539 324.679 485.341 324.761 485.132 324.781C484.923 324.8 484.713 324.755 484.53 324.652C484.348 324.548 484.201 324.392 484.11 324.202C484.018 324.013 483.987 323.801 484.02 323.594L485.36 315.404C485.42 315.03 485.64 314.85 486.02 314.864C499.767 315.417 513.51 315.34 527.25 314.634C527.317 314.63 527.384 314.641 527.447 314.667C527.509 314.692 527.564 314.731 527.609 314.781C527.655 314.831 527.688 314.89 527.707 314.955C527.726 315.019 527.731 315.087 527.72 315.154L526.38 323.314C526.349 323.49 526.257 323.65 526.12 323.765C525.983 323.881 525.809 323.944 525.63 323.944H524.71C524.343 323.944 524.133 323.76 524.08 323.394L523.55 319.334C523.519 319.102 523.406 318.889 523.232 318.733C523.058 318.577 522.834 318.489 522.6 318.484L509.69 318.074C509.323 318.06 509.13 318.24 509.11 318.614C508.55 331.794 508.617 344.99 509.31 358.204C509.53 362.454 512.36 360.154 513.94 362.004C514.011 362.087 514.057 362.189 514.071 362.297C514.086 362.406 514.069 362.516 514.023 362.615C513.976 362.714 513.902 362.798 513.81 362.856C513.717 362.914 513.61 362.945 513.5 362.944H498.01C497.918 362.943 497.828 362.915 497.751 362.863C497.675 362.811 497.615 362.738 497.58 362.653C497.545 362.567 497.536 362.474 497.553 362.383C497.571 362.293 497.615 362.209 497.68 362.144L497.88 361.934C497.967 361.847 498.07 361.784 498.19 361.744L501.92 360.374C502.123 360.297 502.297 360.162 502.421 359.987C502.544 359.812 502.61 359.605 502.61 359.394L502.74 318.854C502.74 318.5 502.563 318.31 502.21 318.284Z" fill="#ED5A67"/>
<path d="M544.8 316.814C544.666 316.817 544.533 316.787 544.413 316.725C544.294 316.663 544.193 316.572 544.119 316.459C544.044 316.347 544 316.218 543.99 316.084C543.98 315.95 544.004 315.816 544.06 315.694C544.333 315.1 544.817 314.84 545.51 314.914C546.117 314.98 546.45 315.014 546.51 315.014C555.95 315.06 565.39 314.967 574.83 314.734C575.15 314.727 575.283 314.88 575.23 315.194L573.84 323.184C573.793 323.467 573.645 323.724 573.422 323.906C573.199 324.088 572.918 324.182 572.63 324.171C572.343 324.16 572.069 324.045 571.861 323.846C571.653 323.648 571.525 323.38 571.5 323.094L571.16 319.694C571.124 319.35 570.963 319.032 570.71 318.798C570.456 318.565 570.125 318.431 569.78 318.424L556.34 318.094C555.827 318.08 555.563 318.334 555.55 318.854L555.18 336.304C555.177 336.394 555.193 336.484 555.227 336.568C555.26 336.653 555.311 336.729 555.375 336.794C555.44 336.858 555.517 336.909 555.602 336.944C555.687 336.978 555.778 336.995 555.87 336.994L565.86 336.824C566.043 336.821 566.222 336.77 566.38 336.677C566.538 336.584 566.669 336.452 566.76 336.294L568.94 332.484C569.061 332.282 569.245 332.126 569.465 332.041C569.684 331.957 569.926 331.949 570.151 332.018C570.375 332.087 570.571 332.23 570.705 332.423C570.839 332.616 570.904 332.849 570.89 333.084L569.98 344.864C569.94 345.377 569.66 345.634 569.14 345.634H568.28C567.88 345.634 567.643 345.434 567.57 345.034L566.81 340.874C566.717 340.36 566.41 340.09 565.89 340.064L556.37 339.574C556.228 339.566 556.086 339.586 555.952 339.635C555.818 339.683 555.696 339.758 555.592 339.856C555.488 339.953 555.405 340.07 555.348 340.201C555.291 340.331 555.261 340.471 555.26 340.614C555.173 345.914 555.42 350.944 556 355.704C556.67 361.244 564.03 360.204 568.81 360.034C573.38 359.874 573.06 357.804 575.66 355.104C575.78 354.98 575.935 354.897 576.104 354.864C576.273 354.832 576.447 354.852 576.603 354.922C576.759 354.993 576.889 355.11 576.974 355.257C577.06 355.404 577.097 355.574 577.08 355.744L576.48 362.474C576.453 362.787 576.283 362.944 575.97 362.944H544.74C544.668 362.943 544.597 362.927 544.531 362.897C544.466 362.866 544.408 362.823 544.362 362.769C544.315 362.715 544.281 362.651 544.262 362.583C544.242 362.515 544.238 362.443 544.25 362.374C544.33 361.82 544.603 361.534 545.07 361.514C549.13 361.324 549.01 357.914 549.14 354.874C549.607 343.827 549.58 332.784 549.06 321.744C548.91 318.514 548.4 316.724 544.8 316.814Z" fill="#ED5A67"/>
<path d="M12.6 340.294C12.34 349.047 12.3933 354.937 12.76 357.964C13.0533 360.35 14.5466 361.587 17.24 361.674C17.6333 361.687 17.8033 361.887 17.75 362.274L17.71 362.584C17.6766 362.824 17.54 362.944 17.3 362.944H1.66997C1.56653 362.944 1.46733 362.902 1.39419 362.829C1.32105 362.756 1.27997 362.657 1.27997 362.554V362.124C1.27997 361.83 1.42664 361.677 1.71997 361.664C6.16997 361.494 5.94997 358.864 6.11997 355.374C6.6933 343.727 6.6733 332.084 6.05997 320.444C6.0133 319.544 5.78663 318.724 5.37997 317.984C5.22663 317.704 4.99664 317.52 4.68997 317.434L1.72997 316.614C1.54377 316.561 1.38289 316.443 1.27712 316.281C1.17136 316.119 1.12787 315.924 1.15472 315.733C1.18156 315.541 1.27692 315.366 1.42313 315.239C1.56935 315.112 1.75651 315.043 1.94997 315.044L17.32 315.254C17.6333 315.26 17.7466 315.414 17.66 315.714C17.31 316.994 14.36 317.224 13.23 318.244C12.97 318.477 12.8333 318.767 12.82 319.114L12.33 336.234C12.3273 336.336 12.3455 336.439 12.3835 336.534C12.4215 336.63 12.4785 336.717 12.5512 336.791C12.6239 336.865 12.7108 336.923 12.8068 336.963C12.9027 337.003 13.0058 337.024 13.11 337.024L39.13 337.064C39.5033 337.064 39.6933 336.877 39.7 336.504C39.8266 331.024 39.77 325.52 39.53 319.994C39.4433 317.98 38.3466 316.964 36.24 316.944C35.24 316.937 34.6733 316.514 34.54 315.674C34.5284 315.603 34.5327 315.53 34.5525 315.46C34.5723 315.391 34.6071 315.327 34.6546 315.271C34.702 315.216 34.7611 315.172 34.8276 315.141C34.8941 315.111 34.9665 315.094 35.04 315.094L50.36 315.194C50.5138 315.197 50.6623 315.254 50.7796 315.355C50.8968 315.456 50.9754 315.594 51.0016 315.745C51.0278 315.896 50.9999 316.051 50.9229 316.182C50.8458 316.314 50.7245 316.413 50.58 316.464L47.1 317.694C46.9191 317.756 46.7603 317.872 46.643 318.026C46.5257 318.181 46.4552 318.368 46.44 318.564C45.7 330.07 45.6733 343.09 46.36 357.624C46.58 362.374 48.88 360.104 50.9 361.944C50.9866 362.02 51.0474 362.121 51.0743 362.233C51.1012 362.345 51.093 362.463 51.0508 362.572C51.0086 362.68 50.9343 362.773 50.8377 362.84C50.7412 362.906 50.6269 362.942 50.51 362.944H35.06C34.9146 362.943 34.7744 362.889 34.6656 362.793C34.5568 362.696 34.4867 362.564 34.4683 362.419C34.45 362.275 34.4847 362.129 34.5659 362.008C34.6471 361.888 34.7694 361.801 34.91 361.764L37.9 361.044C38.3162 360.943 38.6876 360.707 38.9569 360.372C39.2262 360.038 39.3784 359.624 39.39 359.194L39.88 340.444C39.8933 340.01 39.68 339.79 39.24 339.784L13.15 339.764C12.7966 339.764 12.6133 339.94 12.6 340.294Z" fill="#ED5A67"/>
<path d="M713.44 318.434C713.207 319.374 713.063 320.544 713.01 321.944C712.583 332.67 712.603 343.4 713.07 354.134C713.4 361.754 722.2 360.494 727.45 359.844C731.86 359.294 730.79 355.604 733.59 355.014C733.716 354.987 733.846 354.991 733.97 355.025C734.093 355.059 734.207 355.122 734.301 355.209C734.395 355.297 734.467 355.405 734.51 355.526C734.554 355.647 734.567 355.776 734.55 355.904L733.64 362.524C733.6 362.804 733.44 362.944 733.16 362.944H701.77C701.657 362.939 701.548 362.896 701.463 362.821C701.378 362.745 701.322 362.643 701.304 362.53C701.286 362.418 701.308 362.303 701.366 362.205C701.423 362.107 701.513 362.033 701.62 361.994L704.82 360.904C705.147 360.79 705.397 360.584 705.57 360.284C706.057 359.437 706.32 358.347 706.36 357.014C706.78 342.454 706.773 330.337 706.34 320.664C706.23 318.104 705.07 316.954 702.62 316.734C702.293 316.707 702.01 316.577 701.77 316.344L701.39 315.964C701.334 315.905 701.296 315.831 701.281 315.752C701.266 315.672 701.274 315.59 701.305 315.515C701.336 315.44 701.387 315.375 701.454 315.329C701.52 315.282 701.599 315.256 701.68 315.254L716.67 315.054C716.813 315.05 716.955 315.08 717.085 315.141C717.215 315.201 717.33 315.291 717.42 315.404C717.953 316.077 717.777 316.5 716.89 316.674C715.897 316.874 714.94 317.217 714.02 317.704C713.878 317.776 713.753 317.878 713.653 318.004C713.553 318.13 713.481 318.276 713.44 318.434Z" fill="#ED5A67"/>
<path d="M13.7701 413.164L7.84008 413.254C7.42675 413.26 7.17342 413.464 7.08009 413.864L5.99008 418.544C5.94991 418.716 5.9526 418.895 5.99793 419.066C6.04327 419.237 6.12985 419.394 6.25009 419.524L7.51009 420.874C7.59313 420.965 7.64788 421.079 7.66775 421.201C7.68762 421.323 7.67174 421.448 7.62203 421.561C7.57233 421.674 7.49093 421.77 7.38766 421.838C7.28439 421.906 7.16367 421.943 7.04009 421.944H1.94009C1.71841 421.943 1.50341 421.868 1.32953 421.73C1.15565 421.593 1.03295 421.401 0.981089 421.185C0.929225 420.97 0.951202 420.743 1.04349 420.541C1.13578 420.34 1.29304 420.175 1.49008 420.074L2.83009 419.394C3.13009 419.247 3.32009 419.01 3.40009 418.684L8.50009 398.934C8.63245 398.432 8.92745 397.989 9.33879 397.674C9.75012 397.359 10.2545 397.189 10.7728 397.191C11.2911 397.193 11.794 397.368 12.2025 397.687C12.6111 398.006 12.9021 398.451 13.0301 398.954L17.9701 418.824C17.9923 418.912 18.0312 418.995 18.0845 419.067C18.1377 419.14 18.2042 419.199 18.2801 419.244L20.7501 420.644C20.8735 420.712 20.971 420.819 21.0272 420.948C21.0835 421.078 21.0955 421.222 21.0613 421.359C21.0271 421.496 20.9486 421.617 20.8381 421.705C20.7275 421.793 20.5911 421.841 20.4501 421.844L14.4801 421.984C14.3349 421.987 14.192 421.947 14.0696 421.869C13.9472 421.791 13.8509 421.678 13.7929 421.545C13.7349 421.412 13.718 421.265 13.7442 421.122C13.7704 420.979 13.8386 420.847 13.9401 420.744L15.3101 419.294C15.4968 419.1 15.5601 418.87 15.5001 418.604L14.3701 413.634C14.2968 413.314 14.0968 413.157 13.7701 413.164ZM10.4701 400.684L8.03009 410.514C8.01048 410.594 8.00935 410.678 8.02677 410.759C8.0442 410.84 8.07972 410.916 8.13069 410.982C8.18167 411.047 8.24677 411.1 8.32112 411.137C8.39548 411.173 8.47717 411.193 8.56008 411.194H12.9701C13.0515 411.193 13.1318 411.174 13.2048 411.138C13.2777 411.102 13.3413 411.049 13.3906 410.985C13.44 410.92 13.4737 410.845 13.4892 410.765C13.5047 410.685 13.5016 410.602 13.4801 410.524L10.7801 400.684C10.7713 400.649 10.7513 400.619 10.7232 400.597C10.6951 400.575 10.6606 400.563 10.6251 400.563C10.5896 400.563 10.555 400.575 10.527 400.597C10.4989 400.619 10.4789 400.649 10.4701 400.684Z" fill="#ED5A67"/>
<path d="M54.59 400.494L54.23 419.514C54.2033 421.134 53.3766 421.944 51.75 421.944H42.42C41.8523 421.944 41.3074 421.719 40.9031 421.319C40.4989 420.918 40.2679 420.374 40.26 419.804L40.02 400.314C40.02 400.027 39.8833 399.844 39.61 399.764L38.5 399.414C38.3001 399.353 38.1292 399.224 38.0182 399.048C37.9073 398.872 37.8635 398.662 37.8949 398.455C37.9264 398.249 38.0309 398.059 38.1895 397.921C38.3482 397.783 38.5506 397.706 38.76 397.704L44.42 397.654C44.5189 397.653 44.6168 397.674 44.7064 397.716C44.7959 397.759 44.8748 397.821 44.9372 397.897C44.9996 397.974 45.044 398.064 45.067 398.16C45.0899 398.257 45.091 398.357 45.07 398.454C44.8833 399.26 44.3366 399.63 43.43 399.564C43.3431 399.557 43.2556 399.567 43.1733 399.596C43.0909 399.624 43.0154 399.668 42.9515 399.726C42.8875 399.785 42.8366 399.855 42.8019 399.934C42.7673 400.013 42.7496 400.098 42.75 400.184V419.144C42.75 419.604 42.9833 419.837 43.45 419.844L50.91 419.894C51.3233 419.9 51.53 419.697 51.53 419.284L51.55 400.614C51.55 400.227 51.3666 399.964 51 399.824L49.88 399.414C49.6824 399.338 49.5173 399.196 49.413 399.012C49.3087 398.828 49.2717 398.614 49.3084 398.406C49.3451 398.197 49.4532 398.008 49.614 397.871C49.7749 397.734 49.9785 397.657 50.19 397.654L55.87 397.604C56.0416 397.603 56.2087 397.659 56.346 397.762C56.4832 397.865 56.5832 398.01 56.6306 398.175C56.6781 398.34 56.6705 398.516 56.609 398.676C56.5476 398.837 56.4356 398.973 56.29 399.064L54.91 399.924C54.6966 400.05 54.59 400.24 54.59 400.494Z" fill="#ED5A67"/>
<path d="M86.62 399.694H83.75C83.25 399.694 83 399.944 83 400.444V419.014C83 419.394 83.1833 419.637 83.55 419.744L85.07 420.174C85.2662 420.235 85.4343 420.363 85.5447 420.537C85.6551 420.71 85.7005 420.917 85.6729 421.121C85.6454 421.324 85.5466 421.512 85.3942 421.65C85.2417 421.787 85.0454 421.867 84.84 421.874L78.82 421.924C78.6994 421.925 78.5805 421.895 78.4748 421.837C78.3692 421.779 78.2804 421.694 78.217 421.591C78.1536 421.489 78.1178 421.372 78.1131 421.251C78.1084 421.131 78.1349 421.011 78.19 420.904C78.5567 420.184 79.16 419.784 80 419.704C80.3333 419.67 80.5 419.487 80.5 419.154V400.444C80.5 399.944 80.25 399.694 79.75 399.694H76.9C76.739 399.694 76.5842 399.756 76.4685 399.868C76.3528 399.98 76.2852 400.133 76.28 400.294L76.19 402.944C76.1696 403.183 76.061 403.407 75.8852 403.571C75.7094 403.735 75.479 403.828 75.2386 403.831C74.9982 403.835 74.7649 403.749 74.5841 403.591C74.4033 403.432 74.2878 403.212 74.26 402.974L73.94 398.384C73.9067 397.944 74.1133 397.72 74.56 397.714L88.34 397.574C88.9867 397.567 89.4033 397.874 89.59 398.494C90.0033 399.867 89.97 401.314 89.49 402.834C89.4119 403.089 89.2457 403.309 89.0209 403.454C88.7961 403.598 88.5273 403.659 88.2623 403.624C87.9972 403.589 87.7531 403.462 87.5732 403.264C87.3934 403.066 87.2895 402.811 87.28 402.544L87.19 400.244C87.17 399.877 86.98 399.694 86.62 399.694Z" fill="#ED5A67"/>
<path d="M144.75 404.524V418.704C144.75 418.895 144.805 419.083 144.907 419.246C145.01 419.408 145.156 419.539 145.33 419.624L146.74 420.294C146.919 420.381 147.062 420.527 147.148 420.707C147.233 420.887 147.255 421.09 147.209 421.284C147.164 421.478 147.055 421.65 146.898 421.774C146.742 421.897 146.549 421.964 146.35 421.964L140.29 421.884C140.176 421.883 140.064 421.853 139.964 421.798C139.864 421.742 139.78 421.662 139.72 421.566C139.659 421.469 139.623 421.359 139.616 421.245C139.61 421.131 139.631 421.017 139.68 420.914C140.013 420.207 140.583 419.77 141.39 419.604C141.803 419.524 142.01 419.274 142.01 418.854L142.17 401.054C142.177 400.774 142.093 400.524 141.92 400.304C141.447 399.717 140.82 399.337 140.04 399.164C139.902 399.131 139.779 399.053 139.689 398.944C139.6 398.835 139.548 398.699 139.542 398.557C139.537 398.416 139.577 398.277 139.658 398.16C139.739 398.044 139.856 397.957 139.99 397.914C141.617 397.42 143.24 397.404 144.86 397.864C145.027 397.911 145.181 397.994 145.312 398.106C145.443 398.218 145.548 398.357 145.62 398.514L151.51 410.894C151.552 410.983 151.619 411.058 151.702 411.11C151.785 411.163 151.882 411.191 151.98 411.191C152.079 411.191 152.175 411.163 152.258 411.11C152.341 411.058 152.408 410.983 152.45 410.894L158.48 398.244C158.66 397.857 158.963 397.667 159.39 397.674L163.55 397.734C163.701 397.733 163.847 397.785 163.965 397.879C164.082 397.973 164.164 398.104 164.198 398.252C164.231 398.4 164.214 398.555 164.149 398.693C164.084 398.832 163.975 398.944 163.84 399.014L162.23 399.834C162.085 399.906 161.964 400.018 161.879 400.155C161.794 400.293 161.75 400.452 161.75 400.614V418.844C161.751 419.006 161.799 419.165 161.89 419.299C161.981 419.432 162.11 419.535 162.26 419.594L163.49 420.074C163.698 420.157 163.871 420.31 163.979 420.507C164.087 420.704 164.123 420.932 164.082 421.152C164.041 421.373 163.924 421.572 163.753 421.716C163.581 421.861 163.364 421.941 163.14 421.944L157.6 421.934C157.512 421.934 157.424 421.916 157.343 421.881C157.262 421.845 157.189 421.794 157.129 421.729C157.069 421.664 157.023 421.587 156.994 421.504C156.965 421.42 156.953 421.332 156.96 421.244C157.027 420.257 157.563 419.784 158.57 419.824C159.023 419.844 159.25 419.624 159.25 419.164V404.214C159.254 404.129 159.228 404.047 159.178 403.979C159.127 403.912 159.054 403.865 158.972 403.846C158.89 403.827 158.804 403.837 158.728 403.875C158.653 403.913 158.594 403.976 158.56 404.054L153.39 414.714C153.251 415.003 153.032 415.247 152.76 415.416C152.487 415.586 152.172 415.674 151.851 415.671C151.53 415.668 151.216 415.573 150.947 415.398C150.677 415.224 150.464 414.976 150.33 414.684L145.6 404.344C145.556 404.252 145.482 404.177 145.39 404.132C145.298 404.086 145.194 404.073 145.095 404.094C144.996 404.115 144.908 404.169 144.845 404.247C144.782 404.325 144.749 404.423 144.75 404.524Z" fill="#ED5A67"/>
<path d="M196.12 418.854L194.84 413.754C194.8 413.599 194.711 413.462 194.586 413.364C194.461 413.267 194.308 413.214 194.15 413.214H188.35C188.189 413.214 188.032 413.269 187.907 413.369C187.781 413.469 187.694 413.608 187.66 413.764L186.51 418.844C186.486 418.944 186.489 419.048 186.519 419.147C186.549 419.245 186.605 419.334 186.68 419.404L188.27 420.914C188.357 420.997 188.417 421.105 188.443 421.223C188.469 421.341 188.459 421.463 188.415 421.575C188.37 421.686 188.294 421.781 188.195 421.847C188.096 421.912 187.979 421.946 187.86 421.944L181.98 421.934C181.794 421.932 181.614 421.869 181.468 421.753C181.323 421.637 181.221 421.475 181.178 421.294C181.135 421.113 181.155 420.923 181.233 420.754C181.311 420.585 181.444 420.448 181.61 420.364L183.5 419.424C183.787 419.277 183.967 419.05 184.04 418.744L189.15 398.434C189.35 397.627 189.863 397.28 190.69 397.394L192.8 397.664C192.942 397.682 193.075 397.743 193.182 397.84C193.289 397.936 193.365 398.063 193.4 398.204L198.7 418.954C198.743 419.125 198.839 419.277 198.974 419.389C199.109 419.501 199.276 419.565 199.45 419.574C200.563 419.627 201.09 420.234 201.03 421.394C201.022 421.55 200.954 421.698 200.838 421.806C200.723 421.914 200.569 421.974 200.41 421.974L195.04 421.954C194.866 421.952 194.697 421.895 194.557 421.791C194.416 421.688 194.313 421.543 194.259 421.377C194.206 421.211 194.207 421.032 194.261 420.867C194.315 420.701 194.419 420.556 194.56 420.454L195.88 419.494C196.107 419.334 196.187 419.12 196.12 418.854ZM188.47 410.704C188.455 410.758 188.452 410.815 188.462 410.871C188.473 410.927 188.496 410.979 188.53 411.025C188.563 411.07 188.607 411.107 188.658 411.133C188.708 411.159 188.764 411.173 188.82 411.174L193.71 411.214C193.767 411.215 193.824 411.204 193.876 411.18C193.928 411.156 193.974 411.12 194.01 411.076C194.045 411.031 194.07 410.979 194.083 410.923C194.095 410.867 194.094 410.809 194.08 410.754L191.71 401.374C191.688 401.297 191.641 401.23 191.577 401.182C191.513 401.134 191.435 401.108 191.355 401.108C191.275 401.108 191.197 401.134 191.133 401.182C191.069 401.23 191.023 401.297 191 401.374L188.47 410.704Z" fill="#ED5A67"/>
<path d="M249.15 399.694L248.17 399.404C247.956 399.347 247.77 399.214 247.648 399.029C247.525 398.845 247.476 398.621 247.508 398.402C247.54 398.183 247.652 397.984 247.822 397.842C247.992 397.7 248.209 397.626 248.43 397.634L262.46 397.654C262.534 397.654 262.608 397.668 262.677 397.697C262.745 397.726 262.807 397.768 262.86 397.821C262.912 397.874 262.953 397.937 262.98 398.006C263.008 398.075 263.021 398.149 263.02 398.224L262.93 402.864C262.922 403.076 262.845 403.281 262.711 403.446C262.576 403.611 262.392 403.728 262.185 403.779C261.978 403.83 261.76 403.812 261.565 403.728C261.369 403.644 261.206 403.498 261.1 403.314C260.7 402.594 260.59 401.817 260.77 400.984C260.804 400.824 260.802 400.659 260.764 400.501C260.726 400.343 260.652 400.195 260.548 400.068C260.445 399.941 260.314 399.839 260.165 399.769C260.017 399.699 259.854 399.663 259.69 399.664L252.99 399.704C252.793 399.706 252.605 399.786 252.466 399.927C252.328 400.067 252.25 400.256 252.25 400.454V407.444C252.25 407.944 252.5 408.194 253 408.194H256.11C256.208 408.194 256.305 408.168 256.393 408.12C256.48 408.071 256.555 408 256.61 407.914L257.76 406.004C257.82 405.901 257.91 405.818 258.018 405.766C258.125 405.715 258.246 405.696 258.364 405.714C258.482 405.731 258.592 405.783 258.681 405.863C258.769 405.943 258.831 406.048 258.86 406.164C259.447 408.404 259.417 410.624 258.77 412.824C258.736 412.938 258.667 413.039 258.573 413.112C258.479 413.186 258.364 413.228 258.244 413.232C258.125 413.236 258.007 413.203 257.908 413.137C257.808 413.071 257.732 412.975 257.69 412.864L256.8 410.584C256.745 410.444 256.647 410.326 256.521 410.247C256.395 410.168 256.247 410.132 256.1 410.144L252.74 410.464C252.407 410.497 252.24 410.684 252.24 411.024L252.28 419.244C252.28 419.429 252.354 419.607 252.485 419.739C252.616 419.87 252.794 419.944 252.98 419.944H259.86C260.025 419.945 260.184 419.884 260.308 419.773C260.431 419.662 260.51 419.51 260.53 419.344L260.83 416.904C260.85 416.664 260.959 416.441 261.135 416.277C261.311 416.113 261.541 416.02 261.781 416.016C262.022 416.012 262.255 416.098 262.436 416.256C262.617 416.415 262.732 416.635 262.76 416.874C262.987 418.4 263.037 419.89 262.91 421.344C262.877 421.75 262.657 421.957 262.25 421.964C255.217 422.097 250.643 422.094 248.53 421.954C247.757 421.9 247.427 421.464 247.54 420.644C247.56 420.502 247.626 420.371 247.727 420.27C247.828 420.169 247.959 420.104 248.1 420.084C249.393 419.917 249.983 419.257 249.87 418.104C249.3 412.294 249.9 406.184 249.64 400.314C249.62 399.987 249.457 399.78 249.15 399.694Z" fill="#ED5A67"/>
<path d="M356.3 418.964L356.23 411.024C356.23 410.869 356.168 410.72 356.058 410.61C355.947 410.5 355.797 410.436 355.64 410.434L347.79 410.364C347.43 410.357 347.25 410.534 347.25 410.894V419.164C347.25 419.288 347.287 419.411 347.356 419.515C347.425 419.62 347.524 419.703 347.64 419.754L348.96 420.334C349.137 420.408 349.281 420.542 349.369 420.711C349.458 420.881 349.484 421.076 349.444 421.264C349.404 421.452 349.3 421.622 349.15 421.744C349 421.866 348.813 421.933 348.62 421.934L343.24 421.944C343.034 421.947 342.833 421.881 342.669 421.756C342.505 421.631 342.388 421.455 342.336 421.255C342.284 421.056 342.3 420.845 342.383 420.656C342.465 420.467 342.609 420.311 342.79 420.214L344.03 419.534C344.343 419.36 344.5 419.097 344.5 418.744V400.504C344.5 400.164 344.343 399.924 344.03 399.784L342.74 399.204C342.606 399.145 342.494 399.046 342.42 398.921C342.345 398.795 342.311 398.65 342.323 398.504C342.335 398.359 342.393 398.221 342.487 398.109C342.582 397.998 342.709 397.919 342.85 397.884C345.017 397.33 347.17 397.37 349.31 398.004C349.406 398.031 349.492 398.086 349.557 398.161C349.622 398.237 349.664 398.33 349.677 398.429C349.69 398.528 349.673 398.629 349.629 398.718C349.585 398.808 349.516 398.883 349.43 398.934L347.53 400.094C347.445 400.145 347.374 400.217 347.325 400.303C347.276 400.389 347.25 400.485 347.25 400.584V407.444C347.25 407.944 347.5 408.194 348 408.194H355.5C356 408.194 356.25 407.944 356.25 407.444V400.424C356.25 400.064 356.077 399.827 355.73 399.714L354.76 399.414C354.527 399.346 354.327 399.196 354.196 398.991C354.066 398.787 354.014 398.542 354.051 398.302C354.088 398.062 354.21 397.844 354.396 397.688C354.581 397.532 354.818 397.449 355.06 397.454H360.25C360.489 397.449 360.722 397.53 360.907 397.682C361.092 397.833 361.218 398.046 361.261 398.281C361.304 398.516 361.262 398.759 361.143 398.967C361.024 399.174 360.835 399.332 360.61 399.414L359.58 399.814C359.193 399.96 359 400.237 359 400.644V418.974C359.001 419.144 359.063 419.309 359.175 419.437C359.287 419.566 359.441 419.65 359.61 419.674C360.543 419.794 361.02 420.307 361.04 421.214C361.047 421.7 360.81 421.944 360.33 421.944H354.78C354.696 421.944 354.613 421.927 354.537 421.893C354.46 421.859 354.392 421.809 354.336 421.747C354.28 421.684 354.238 421.611 354.213 421.531C354.188 421.451 354.18 421.367 354.19 421.284C354.297 420.344 354.837 419.77 355.81 419.564C356.137 419.497 356.3 419.297 356.3 418.964Z" fill="#ED5A67"/>
<path d="M431.97 404.214C431.97 404.136 431.943 404.06 431.894 403.999C431.846 403.938 431.778 403.894 431.703 403.876C431.627 403.858 431.547 403.865 431.476 403.897C431.405 403.929 431.346 403.984 431.31 404.054L426 414.804C425.876 415.057 425.684 415.27 425.444 415.419C425.205 415.567 424.929 415.646 424.647 415.645C424.365 415.644 424.089 415.563 423.851 415.413C423.613 415.262 423.422 415.048 423.3 414.794L418.12 404.084C418.086 404.02 418.032 403.97 417.966 403.94C417.901 403.91 417.827 403.903 417.757 403.918C417.687 403.934 417.624 403.973 417.577 404.028C417.531 404.083 417.504 404.152 417.5 404.224V418.874C417.5 419.22 417.653 419.474 417.96 419.634L419.42 420.384C419.578 420.466 419.705 420.599 419.779 420.761C419.853 420.923 419.871 421.106 419.83 421.279C419.788 421.453 419.69 421.608 419.551 421.719C419.411 421.83 419.239 421.892 419.06 421.894L413.47 421.934C413.251 421.931 413.039 421.852 412.872 421.71C412.705 421.568 412.593 421.372 412.555 421.156C412.517 420.94 412.555 420.718 412.664 420.528C412.773 420.337 412.945 420.191 413.15 420.114L414.23 419.724C414.577 419.597 414.75 419.347 414.75 418.974V400.734C414.75 400.38 414.593 400.124 414.28 399.964L412.85 399.244C412.69 399.164 412.561 399.034 412.483 398.873C412.406 398.712 412.384 398.53 412.422 398.354C412.459 398.178 412.554 398.019 412.691 397.902C412.828 397.784 413 397.715 413.18 397.704L417.03 397.484C417.497 397.457 417.833 397.657 418.04 398.084L424.18 410.924C424.225 411.017 424.295 411.095 424.383 411.15C424.471 411.205 424.572 411.234 424.675 411.234C424.778 411.234 424.88 411.205 424.967 411.15C425.055 411.095 425.125 411.017 425.17 410.924L431.42 397.844C431.593 397.49 431.877 397.33 432.27 397.364L436.55 397.774C436.668 397.786 436.779 397.836 436.867 397.915C436.956 397.993 437.017 398.098 437.044 398.213C437.07 398.329 437.06 398.449 437.014 398.559C436.969 398.668 436.891 398.761 436.79 398.824L435.1 399.834C434.787 400.02 434.63 400.29 434.63 400.644L434.45 418.774C434.443 419.087 434.573 419.324 434.84 419.484L436.37 420.444C436.517 420.533 436.631 420.668 436.693 420.828C436.756 420.987 436.764 421.164 436.717 421.33C436.669 421.496 436.569 421.643 436.43 421.748C436.292 421.854 436.123 421.912 435.95 421.914L430.07 421.954C429.911 421.951 429.756 421.898 429.629 421.802C429.502 421.705 429.409 421.571 429.363 421.419C429.318 421.266 429.322 421.103 429.375 420.953C429.429 420.802 429.528 420.673 429.66 420.584L431.39 419.464C431.63 419.304 431.753 419.08 431.76 418.794L431.97 404.214Z" fill="#ED5A67"/>
<path d="M457.07 399.604L456.01 399.224C455.832 399.158 455.682 399.031 455.588 398.866C455.493 398.701 455.459 398.509 455.493 398.321C455.526 398.134 455.624 397.965 455.77 397.843C455.916 397.721 456.1 397.654 456.29 397.654L470.25 397.684C470.75 397.684 471 397.934 471 398.434V402.684C471 403.224 470.73 403.474 470.19 403.434L469.4 403.374C468.967 403.34 468.75 403.104 468.75 402.664V400.324C468.75 399.904 468.54 399.694 468.12 399.694H460.9C460.5 399.694 460.3 399.894 460.3 400.294V407.344C460.3 407.91 460.583 408.194 461.15 408.194H464.24C464.435 408.194 464.622 408.119 464.764 407.985C464.905 407.851 464.99 407.668 465 407.474C465.053 406.614 465.503 406.084 466.35 405.884C466.857 405.764 467.113 405.96 467.12 406.474L467.17 412.554C467.18 412.759 467.112 412.96 466.978 413.115C466.844 413.271 466.655 413.369 466.451 413.39C466.247 413.411 466.043 413.352 465.88 413.226C465.718 413.1 465.611 412.917 465.58 412.714C465.067 410.107 463.43 409.474 460.67 410.814C460.377 410.954 460.233 411.184 460.24 411.504L460.28 419.244C460.28 419.429 460.354 419.607 460.485 419.739C460.616 419.87 460.794 419.944 460.98 419.944H467.55C467.747 419.944 467.941 419.9 468.117 419.813C468.293 419.726 468.448 419.599 468.568 419.443C468.687 419.286 468.77 419.104 468.808 418.91C468.847 418.715 468.841 418.515 468.79 418.324C468.503 417.237 468.773 416.367 469.6 415.714C469.695 415.639 469.808 415.592 469.928 415.577C470.048 415.562 470.169 415.579 470.28 415.627C470.391 415.675 470.486 415.752 470.557 415.85C470.627 415.948 470.67 416.063 470.68 416.184L471.07 421.134C471.078 421.231 471.066 421.329 471.035 421.421C471.004 421.514 470.954 421.599 470.888 421.671C470.822 421.743 470.742 421.801 470.653 421.841C470.564 421.881 470.468 421.903 470.37 421.904C463.157 421.997 458.563 421.997 456.59 421.904C455.783 421.864 455.427 421.46 455.52 420.694C455.567 420.354 455.753 420.157 456.08 420.104C457.447 419.877 458.063 419.167 457.93 417.974C457.3 412.234 457.9 406.174 457.64 400.374C457.627 399.987 457.437 399.73 457.07 399.604Z" fill="#ED5A67"/>
<path d="M534.23 404.464L529.23 414.834C529.105 415.092 528.908 415.309 528.663 415.456C528.418 415.604 528.135 415.676 527.85 415.664C526.883 415.63 526.233 415.127 525.9 414.154C524.74 410.764 522.92 407.364 521.32 404.064C521.291 404.003 521.241 403.953 521.18 403.924C521.119 403.895 521.049 403.887 520.983 403.902C520.917 403.917 520.858 403.954 520.816 404.007C520.773 404.06 520.75 404.126 520.75 404.194V418.904C520.75 419.21 520.89 419.434 521.17 419.574L522.53 420.234C522.708 420.325 522.85 420.473 522.934 420.655C523.019 420.836 523.04 421.04 522.995 421.235C522.951 421.43 522.842 421.605 522.688 421.731C522.533 421.858 522.34 421.929 522.14 421.934L516.59 421.944C516.357 421.944 516.132 421.862 515.954 421.712C515.775 421.563 515.655 421.355 515.615 421.126C515.574 420.897 515.615 420.661 515.732 420.459C515.848 420.258 516.031 420.103 516.25 420.024L517.51 419.554C517.857 419.427 518.027 419.184 518.02 418.824L517.99 400.514C517.99 400.355 517.939 400.201 517.843 400.073C517.748 399.945 517.614 399.851 517.46 399.804L516.04 399.354C515.9 399.309 515.776 399.222 515.688 399.105C515.599 398.987 515.549 398.845 515.544 398.698C515.54 398.551 515.582 398.406 515.663 398.283C515.745 398.161 515.863 398.066 516 398.014C517.567 397.414 519.157 397.36 520.77 397.854C521.07 397.94 521.287 398.124 521.42 398.404L527.38 410.824C527.425 410.922 527.496 411.005 527.587 411.063C527.677 411.121 527.782 411.152 527.89 411.152C527.998 411.152 528.103 411.121 528.193 411.063C528.284 411.005 528.356 410.922 528.4 410.824L534.42 398.074C534.483 397.943 534.583 397.834 534.709 397.759C534.836 397.684 534.982 397.648 535.13 397.654L539.74 397.804C539.842 397.808 539.94 397.845 540.021 397.908C540.101 397.971 540.159 398.058 540.188 398.156C540.217 398.254 540.214 398.358 540.18 398.455C540.147 398.551 540.084 398.635 540 398.694L538.15 399.964C537.863 400.157 537.723 400.427 537.73 400.774L537.76 419.054C537.76 419.17 537.795 419.284 537.861 419.384C537.927 419.483 538.02 419.563 538.13 419.614L539.58 420.294C539.758 420.376 539.903 420.518 539.99 420.694C540.076 420.87 540.1 421.071 540.057 421.263C540.014 421.455 539.906 421.626 539.752 421.748C539.598 421.87 539.407 421.935 539.21 421.934L533.45 421.944C533.272 421.944 533.1 421.886 532.959 421.777C532.818 421.669 532.718 421.517 532.673 421.345C532.628 421.173 532.642 420.991 532.712 420.828C532.782 420.665 532.905 420.53 533.06 420.444L534.61 419.564C534.823 419.444 534.93 419.264 534.93 419.024L535.18 404.684C535.181 404.57 535.143 404.46 535.072 404.371C535.002 404.282 534.903 404.22 534.793 404.195C534.682 404.169 534.567 404.182 534.464 404.231C534.362 404.279 534.279 404.362 534.23 404.464Z" fill="#ED5A67"/>
<path d="M557.73 421.884C557.569 421.881 557.413 421.825 557.287 421.725C557.161 421.625 557.071 421.486 557.033 421.33C556.994 421.173 557.008 421.008 557.072 420.861C557.137 420.713 557.249 420.591 557.39 420.514L559.42 419.384C559.693 419.23 559.87 419 559.95 418.694L565.08 398.334C565.253 397.62 565.703 397.307 566.43 397.394L568.6 397.654C568.98 397.7 569.217 397.907 569.31 398.274L574.56 418.984C574.601 419.142 574.689 419.284 574.812 419.39C574.936 419.495 575.089 419.56 575.25 419.574C576.25 419.667 576.857 420.187 577.07 421.134C577.091 421.23 577.09 421.329 577.069 421.425C577.047 421.521 577.004 421.61 576.944 421.687C576.883 421.763 576.807 421.825 576.72 421.868C576.632 421.911 576.537 421.933 576.44 421.934L570.77 421.944C570.263 421.95 570.09 421.71 570.25 421.224C570.497 420.47 570.98 419.93 571.7 419.604C571.82 419.551 571.918 419.458 571.977 419.339C572.035 419.22 572.051 419.084 572.02 418.954L570.76 413.834C570.717 413.659 570.617 413.504 570.476 413.393C570.334 413.283 570.16 413.223 569.98 413.224L564.27 413.184C564.094 413.184 563.924 413.244 563.786 413.355C563.648 413.466 563.551 413.62 563.51 413.794L562.39 418.884C562.35 419.074 562.383 419.273 562.483 419.44C562.583 419.607 562.743 419.73 562.93 419.784C563.69 419.99 564.053 420.507 564.02 421.334C564.012 421.505 563.938 421.667 563.813 421.784C563.688 421.902 563.522 421.966 563.35 421.964L557.73 421.884ZM564.3 410.764C564.288 410.809 564.286 410.856 564.295 410.902C564.304 410.948 564.323 410.991 564.351 411.029C564.379 411.066 564.415 411.097 564.456 411.119C564.498 411.14 564.543 411.152 564.59 411.154L569.64 411.244C569.688 411.244 569.735 411.233 569.777 411.212C569.82 411.191 569.857 411.16 569.886 411.123C569.915 411.085 569.935 411.041 569.945 410.994C569.954 410.948 569.952 410.9 569.94 410.854L567.59 401.174C567.574 401.107 567.536 401.047 567.482 401.005C567.429 400.962 567.363 400.938 567.294 400.937C567.225 400.935 567.158 400.957 567.103 400.998C567.048 401.039 567.008 401.097 566.99 401.164L564.3 410.764Z" fill="#ED5A67"/>
<path d="M599.87 403.874C599.836 403.81 599.782 403.76 599.716 403.73C599.651 403.7 599.577 403.693 599.507 403.708C599.437 403.724 599.374 403.763 599.327 403.818C599.281 403.873 599.254 403.942 599.25 404.014V418.954C599.25 419.113 599.298 419.268 599.387 419.4C599.476 419.532 599.603 419.634 599.75 419.694L601.32 420.334C601.506 420.401 601.662 420.532 601.759 420.704C601.857 420.876 601.89 421.077 601.853 421.271C601.815 421.465 601.71 421.639 601.555 421.763C601.401 421.886 601.208 421.95 601.01 421.944H595.39C595.18 421.947 594.976 421.878 594.81 421.749C594.645 421.62 594.529 421.438 594.481 421.234C594.433 421.029 594.457 420.815 594.547 420.626C594.638 420.436 594.791 420.284 594.98 420.194L596.37 419.514C596.623 419.387 596.75 419.18 596.75 418.894V400.764C596.75 400.623 596.714 400.484 596.646 400.36C596.578 400.236 596.48 400.13 596.36 400.054L594.97 399.174C594.797 399.066 594.664 398.905 594.591 398.714C594.519 398.524 594.511 398.314 594.569 398.119C594.627 397.924 594.747 397.753 594.912 397.632C595.077 397.512 595.276 397.449 595.48 397.454L599.05 397.514C599.497 397.52 599.817 397.724 600.01 398.124L608.59 415.824C609.03 416.744 609.25 416.694 609.25 415.674V400.574C609.25 400.417 609.202 400.263 609.113 400.131C609.024 400 608.898 399.896 608.75 399.834L607.25 399.224C607.081 399.154 606.942 399.028 606.856 398.867C606.769 398.706 606.742 398.52 606.777 398.341C606.812 398.161 606.909 398 607.05 397.884C607.191 397.768 607.367 397.704 607.55 397.704L613.68 397.694C613.832 397.695 613.979 397.747 614.1 397.841C614.22 397.934 614.306 398.064 614.345 398.21C614.384 398.356 614.373 398.51 614.314 398.648C614.255 398.786 614.152 398.901 614.02 398.974L612.12 400.034C611.873 400.174 611.75 400.384 611.75 400.664V420.704C611.749 421.101 611.613 421.486 611.366 421.796C611.118 422.107 610.772 422.324 610.385 422.413C609.998 422.502 609.593 422.458 609.234 422.288C608.875 422.117 608.585 421.83 608.41 421.474L599.87 403.874Z" fill="#ED5A67"/>
<path d="M636.72 419.534L638.43 420.874C638.528 420.951 638.599 421.058 638.634 421.178C638.668 421.298 638.664 421.427 638.623 421.544C638.581 421.662 638.503 421.764 638.4 421.836C638.298 421.907 638.175 421.945 638.05 421.944L632.12 421.824C631.918 421.821 631.723 421.745 631.572 421.61C631.422 421.475 631.325 421.29 631.299 421.09C631.273 420.889 631.321 420.686 631.433 420.518C631.546 420.349 631.715 420.227 631.91 420.174L633.34 419.794C633.667 419.707 633.87 419.5 633.95 419.174L639.16 398.854C639.286 398.368 639.568 397.938 639.964 397.63C640.36 397.323 640.846 397.155 641.347 397.152C641.849 397.15 642.337 397.314 642.735 397.618C643.134 397.922 643.42 398.35 643.55 398.834C645.137 404.854 646.697 411.094 648.23 417.554C648.58 419.014 649.24 419.964 650.77 420.094C650.994 420.125 651.199 420.239 651.343 420.413C651.488 420.587 651.563 420.809 651.553 421.035C651.543 421.261 651.449 421.475 651.289 421.636C651.13 421.797 650.916 421.892 650.69 421.904L645.16 421.894C644.943 421.892 644.733 421.813 644.567 421.672C644.401 421.531 644.291 421.336 644.255 421.122C644.219 420.909 644.26 420.69 644.371 420.506C644.481 420.321 644.655 420.182 644.86 420.114L645.73 419.824C645.938 419.752 646.111 419.604 646.214 419.411C646.316 419.217 646.34 418.993 646.28 418.784L644.9 413.714C644.857 413.564 644.766 413.432 644.642 413.339C644.517 413.245 644.366 413.194 644.21 413.194H638.51C638.157 413.194 637.933 413.364 637.84 413.704L636.48 418.804C636.4 419.097 636.48 419.34 636.72 419.534ZM638.45 410.704C638.436 410.758 638.435 410.815 638.447 410.87C638.459 410.926 638.483 410.977 638.518 411.022C638.552 411.066 638.597 411.102 638.647 411.126C638.698 411.151 638.754 411.164 638.81 411.164L643.71 411.224C643.766 411.224 643.822 411.211 643.873 411.186C643.923 411.162 643.968 411.126 644.003 411.082C644.037 411.037 644.061 410.986 644.073 410.93C644.085 410.875 644.084 410.818 644.07 410.764L641.73 400.834C641.712 400.752 641.667 400.679 641.602 400.627C641.538 400.574 641.457 400.545 641.374 400.544C641.291 400.543 641.209 400.57 641.143 400.621C641.077 400.671 641.03 400.743 641.01 400.824L638.45 410.704Z" fill="#ED5A67"/>
<path d="M678.98 412.644L676.3 414.334C676.193 414.402 676.068 414.438 675.941 414.439C675.814 414.439 675.689 414.404 675.581 414.338C675.472 414.271 675.385 414.175 675.328 414.062C675.271 413.948 675.248 413.82 675.26 413.694C675.327 412.927 675.773 412.304 676.6 411.824C678.387 410.797 680.077 409.7 681.67 408.534C681.748 408.476 681.84 408.441 681.936 408.433C682.032 408.425 682.129 408.443 682.215 408.487C682.301 408.531 682.373 408.597 682.424 408.68C682.474 408.762 682.501 408.857 682.5 408.954V421.344C682.5 421.428 682.483 421.513 682.45 421.591C682.418 421.669 682.37 421.74 682.309 421.8C682.249 421.859 682.177 421.906 682.098 421.938C682.019 421.969 681.935 421.985 681.85 421.984L671.98 421.924C669.827 421.91 668.75 420.827 668.75 418.674V400.054C668.75 399.45 668.987 398.871 669.409 398.441C669.832 398.011 670.407 397.764 671.01 397.754L682.06 397.564C682.36 397.557 682.507 397.704 682.5 398.004L682.49 402.814C682.49 402.987 682.435 403.156 682.332 403.296C682.23 403.437 682.085 403.541 681.92 403.594C680.627 404 679.97 403.624 679.95 402.464C679.937 401.764 679.927 401.054 679.92 400.334C679.92 399.907 679.707 399.694 679.28 399.694H672C671.5 399.694 671.25 399.944 671.25 400.444V419.194C671.25 419.289 671.269 419.384 671.307 419.472C671.345 419.561 671.401 419.64 671.471 419.707C671.541 419.773 671.624 419.825 671.715 419.858C671.806 419.892 671.903 419.908 672 419.904L679.37 419.624C679.723 419.61 679.893 419.427 679.88 419.074L679.69 413.014C679.67 412.48 679.433 412.357 678.98 412.644Z" fill="#ED5A67"/>
<path d="M709.95 410.444H706.66C706.488 410.444 706.322 410.512 706.2 410.634C706.079 410.756 706.01 410.921 706.01 411.094L706 418.944C706 419.128 706.07 419.305 706.197 419.439C706.323 419.573 706.496 419.653 706.68 419.664L713.96 420.034C714.123 420.041 714.285 420.005 714.43 419.929C714.574 419.854 714.696 419.741 714.783 419.602C714.869 419.464 714.917 419.305 714.922 419.142C714.927 418.978 714.888 418.817 714.81 418.674C714.137 417.474 714.337 416.517 715.41 415.804C715.542 415.716 715.695 415.666 715.853 415.658C716.011 415.65 716.168 415.685 716.307 415.759C716.446 415.833 716.561 415.943 716.641 416.078C716.721 416.213 716.762 416.367 716.76 416.524L716.71 421.284C716.71 421.77 716.467 422.01 715.98 422.004L701.84 421.974C701.662 421.974 701.488 421.916 701.347 421.808C701.205 421.7 701.103 421.548 701.056 421.376C701.009 421.204 701.021 421.021 701.088 420.856C701.156 420.691 701.276 420.553 701.43 420.464L702.95 419.564C703.118 419.463 703.257 419.321 703.353 419.151C703.449 418.981 703.5 418.789 703.5 418.594V400.614C703.501 400.483 703.466 400.354 703.399 400.24C703.332 400.126 703.236 400.03 703.12 399.964L701.11 398.794C700.99 398.726 700.896 398.621 700.843 398.494C700.79 398.367 700.78 398.226 700.816 398.093C700.851 397.961 700.93 397.843 701.039 397.76C701.149 397.677 701.283 397.632 701.42 397.634L716.13 397.654C716.577 397.654 716.783 397.877 716.75 398.324L716.4 403.264C716.36 403.81 716.107 403.944 715.64 403.664L715.19 403.394C714.897 403.22 714.75 402.96 714.75 402.614V400.194C714.75 399.86 714.583 399.694 714.25 399.694H706.76C706.61 399.693 706.465 399.752 706.357 399.856C706.249 399.961 706.185 400.103 706.18 400.254L706.01 407.284C705.997 407.59 706.133 407.8 706.42 407.914C708.9 408.9 710.547 408.354 711.36 406.274C711.426 406.095 711.554 405.945 711.72 405.852C711.886 405.759 712.081 405.728 712.268 405.766C712.455 405.803 712.622 405.906 712.74 406.056C712.858 406.206 712.918 406.393 712.91 406.584L712.76 412.534C712.76 412.709 712.698 412.878 712.585 413.012C712.472 413.146 712.315 413.235 712.142 413.264C711.969 413.292 711.792 413.259 711.641 413.169C711.491 413.079 711.377 412.939 711.32 412.774L710.66 410.944C710.607 410.797 710.51 410.67 710.383 410.58C710.256 410.491 710.105 410.443 709.95 410.444Z" fill="#ED5A67"/>
<path d="M757.06 400.474C757.027 406.547 757 412.624 756.98 418.704C756.98 419.257 757.293 419.624 757.92 419.804C758.18 419.877 758.417 419.99 758.63 420.144C759.303 420.617 759.43 421.094 759.01 421.574C758.77 421.847 758.467 421.98 758.1 421.974L752.95 421.874C752.733 421.863 752.527 421.776 752.368 421.629C752.209 421.481 752.108 421.282 752.082 421.066C752.055 420.851 752.106 420.633 752.225 420.452C752.343 420.27 752.522 420.136 752.73 420.074L754.06 419.724C754.353 419.644 754.5 419.45 754.5 419.144V404.414C754.5 404.316 754.466 404.221 754.405 404.145C754.343 404.069 754.258 404.016 754.162 403.995C754.067 403.974 753.967 403.986 753.879 404.029C753.791 404.073 753.721 404.145 753.68 404.234L748.77 414.704C748.672 414.912 748.532 415.098 748.358 415.249C748.184 415.401 747.981 415.515 747.76 415.584C746.687 415.904 745.923 415.514 745.47 414.414C744.01 410.834 742.387 407.4 740.6 404.114C740.565 404.051 740.511 404.002 740.445 403.974C740.38 403.946 740.307 403.941 740.238 403.959C740.169 403.978 740.108 404.019 740.065 404.076C740.022 404.133 739.999 404.202 740 404.274V418.674C740 419.094 740.187 419.397 740.56 419.584L742.17 420.384C742.338 420.464 742.474 420.599 742.555 420.767C742.637 420.936 742.658 421.126 742.616 421.308C742.574 421.49 742.471 421.652 742.325 421.767C742.178 421.883 741.997 421.945 741.81 421.944H736.05C735.817 421.944 735.591 421.861 735.415 421.709C735.24 421.556 735.125 421.345 735.092 421.114C735.059 420.882 735.111 420.646 735.237 420.447C735.363 420.249 735.556 420.102 735.78 420.034L737.06 419.644C737.186 419.609 737.298 419.534 737.377 419.431C737.457 419.328 737.5 419.203 737.5 419.074V400.774C737.5 400.614 737.455 400.458 737.37 400.322C737.285 400.186 737.164 400.076 737.02 400.004L735.27 399.144C735.161 399.089 735.07 399.005 735.008 398.9C734.946 398.795 734.916 398.674 734.922 398.552C734.927 398.431 734.967 398.313 735.038 398.214C735.109 398.115 735.207 398.038 735.32 397.994C736.833 397.394 738.377 397.304 739.95 397.724C740.123 397.771 740.283 397.854 740.421 397.967C740.559 398.081 740.671 398.223 740.75 398.384L746.86 410.954C746.901 411.033 746.963 411.1 747.039 411.146C747.116 411.192 747.204 411.216 747.293 411.215C747.383 411.214 747.47 411.188 747.545 411.14C747.621 411.092 747.681 411.024 747.72 410.944L753.98 397.944C754.043 397.813 754.143 397.704 754.269 397.629C754.396 397.554 754.542 397.518 754.69 397.524L758.62 397.694C758.824 397.705 759.018 397.787 759.167 397.926C759.316 398.066 759.412 398.253 759.437 398.456C759.462 398.658 759.415 398.863 759.304 399.035C759.193 399.206 759.025 399.333 758.83 399.394L757.6 399.754C757.247 399.86 757.067 400.1 757.06 400.474Z" fill="#ED5A67"/>
<path d="M780.3 418.984V400.864C780.3 400.531 780.181 400.209 779.965 399.955C779.749 399.701 779.45 399.53 779.12 399.474C778.513 399.374 778.217 399.027 778.23 398.434C778.243 398.027 778.45 397.77 778.85 397.664C782.51 396.694 789.18 397.604 793.14 397.754C793.214 397.756 793.287 397.774 793.354 397.805C793.421 397.836 793.481 397.881 793.531 397.936C793.58 397.991 793.618 398.055 793.642 398.125C793.666 398.196 793.675 398.27 793.67 398.344L793.42 402.714C793.408 402.901 793.328 403.078 793.195 403.209C793.062 403.34 792.885 403.416 792.7 403.424L791.89 403.454C791.815 403.457 791.741 403.444 791.671 403.415C791.602 403.387 791.539 403.344 791.487 403.29C791.435 403.235 791.395 403.169 791.37 403.098C791.345 403.026 791.334 402.95 791.34 402.874L791.54 400.494C791.587 399.96 791.34 399.694 790.8 399.694H783.75C783.25 399.694 783 399.944 783 400.444V407.444C783 407.944 783.25 408.194 783.75 408.194H786.73C786.92 408.194 787.104 408.123 787.244 407.993C787.385 407.864 787.473 407.685 787.49 407.494C787.577 406.567 788.073 406.05 788.98 405.944C789.5 405.877 789.757 406.107 789.75 406.634L789.74 412.374C789.74 412.498 789.709 412.62 789.649 412.728C789.589 412.837 789.503 412.929 789.397 412.996C789.291 413.063 789.17 413.102 789.045 413.11C788.92 413.119 788.794 413.096 788.68 413.044C787.84 412.664 787.447 412.01 787.5 411.084C787.504 410.998 787.491 410.913 787.462 410.832C787.433 410.752 787.389 410.678 787.331 410.615C787.274 410.552 787.204 410.501 787.127 410.464C787.049 410.428 786.965 410.407 786.88 410.404L783.72 410.284C783.24 410.264 783 410.497 783 410.984V419.294C783 419.453 783.063 419.605 783.176 419.718C783.288 419.83 783.441 419.894 783.6 419.894L790.58 419.904C790.967 419.904 791.217 419.72 791.33 419.354C791.64 418.364 791.24 417.084 791.56 416.284C791.767 415.777 792.163 415.604 792.75 415.764C792.965 415.821 793.154 415.948 793.29 416.125C793.425 416.302 793.499 416.519 793.5 416.744V421.444C793.5 421.777 793.333 421.944 793 421.944H778.81C778.303 421.944 778.097 421.697 778.19 421.204C778.357 420.357 778.897 419.824 779.81 419.604C779.949 419.572 780.073 419.493 780.162 419.381C780.251 419.268 780.3 419.128 780.3 418.984Z" fill="#ED5A67"/>
<path d="M817 404.574V419.184C817 419.349 817.066 419.508 817.184 419.626C817.302 419.743 817.462 419.811 817.63 419.814C818.63 419.814 819.093 420.324 819.02 421.344C819.01 421.513 818.934 421.673 818.81 421.788C818.685 421.904 818.52 421.967 818.35 421.964L812.54 421.884C812.43 421.882 812.323 421.852 812.228 421.797C812.133 421.743 812.053 421.665 811.996 421.571C811.939 421.477 811.907 421.37 811.902 421.261C811.898 421.151 811.921 421.042 811.97 420.944C812.357 420.177 813.003 419.77 813.91 419.724C814.277 419.704 814.46 419.514 814.46 419.154L814.52 400.834C814.52 400.671 814.475 400.511 814.391 400.371C814.306 400.232 814.185 400.119 814.04 400.044L812.11 399.034C812.024 398.99 811.952 398.922 811.902 398.84C811.853 398.757 811.827 398.662 811.828 398.566C811.829 398.469 811.857 398.375 811.908 398.293C811.96 398.212 812.033 398.146 812.12 398.104C814.79 396.784 817.14 397.144 818.54 400.054C821.027 405.227 823.463 410.347 825.85 415.414C825.894 415.513 825.971 415.594 826.068 415.644C826.165 415.693 826.276 415.707 826.382 415.683C826.488 415.659 826.583 415.6 826.65 415.514C826.717 415.429 826.753 415.322 826.75 415.214V400.564C826.75 400.097 826.52 399.82 826.06 399.734L825.14 399.564C824.926 399.526 824.731 399.414 824.591 399.248C824.45 399.081 824.373 398.871 824.371 398.653C824.37 398.435 824.445 398.224 824.584 398.056C824.723 397.888 824.916 397.774 825.13 397.734C827.27 397.32 829.413 397.4 831.56 397.974C831.67 398.003 831.768 398.065 831.841 398.151C831.915 398.237 831.961 398.343 831.973 398.456C831.985 398.569 831.962 398.682 831.908 398.782C831.854 398.881 831.771 398.962 831.67 399.014L829.88 399.904C829.627 400.03 829.5 400.234 829.5 400.514V420.164C829.503 420.615 829.352 421.053 829.072 421.407C828.792 421.76 828.4 422.008 827.96 422.108C827.521 422.208 827.06 422.155 826.655 421.958C826.249 421.761 825.923 421.431 825.73 421.024L817.74 404.404C817.701 404.325 817.637 404.261 817.558 404.224C817.478 404.186 817.388 404.176 817.303 404.196C817.217 404.215 817.141 404.263 817.086 404.332C817.031 404.401 817.001 404.486 817 404.574Z" fill="#ED5A67"/>
<path d="M849.36 402.724C849.207 401.19 849.183 399.664 849.29 398.144C849.323 397.664 849.58 397.424 850.06 397.424L864.29 397.574C864.375 397.574 864.458 397.591 864.536 397.624C864.614 397.657 864.684 397.706 864.743 397.768C864.802 397.83 864.848 397.902 864.878 397.982C864.908 398.062 864.923 398.148 864.92 398.234L864.73 402.874C864.717 403.327 864.487 403.6 864.04 403.694C863.453 403.82 863.043 403.547 862.81 402.874C862.77 402.761 862.75 402.639 862.75 402.514V400.444C862.75 399.944 862.5 399.694 862 399.694H859.25C858.75 399.694 858.5 399.944 858.5 400.444V418.664C858.5 418.821 858.538 418.976 858.611 419.115C858.684 419.255 858.79 419.374 858.92 419.464L860.5 420.564C860.634 420.658 860.734 420.792 860.787 420.946C860.839 421.101 860.841 421.269 860.792 421.424C860.743 421.58 860.646 421.717 860.514 421.814C860.382 421.91 860.223 421.963 860.06 421.964L853.91 421.914C853.768 421.915 853.629 421.87 853.514 421.786C853.4 421.702 853.315 421.583 853.274 421.447C853.232 421.311 853.236 421.165 853.284 421.031C853.332 420.897 853.422 420.782 853.54 420.704L855.48 419.364C855.564 419.305 855.632 419.227 855.679 419.139C855.726 419.05 855.75 418.952 855.75 418.854V400.364C855.75 400.191 855.682 400.026 855.56 399.904C855.438 399.782 855.272 399.714 855.1 399.714L852.26 399.684C852.059 399.684 851.865 399.763 851.723 399.903C851.58 400.044 851.5 400.235 851.5 400.434V402.614C851.515 402.897 851.416 403.175 851.226 403.386C851.035 403.597 850.769 403.724 850.485 403.739C850.201 403.753 849.923 403.654 849.712 403.464C849.501 403.274 849.375 403.007 849.36 402.724Z" fill="#ED5A67"/>
<path d="M120.974 418.906C120.973 419.709 120.652 420.479 120.083 421.047C119.514 421.614 118.743 421.932 117.939 421.93L110.279 421.917C109.881 421.916 109.487 421.837 109.12 421.684C108.752 421.531 108.419 421.308 108.138 421.026C107.857 420.744 107.635 420.409 107.483 420.042C107.331 419.674 107.254 419.28 107.254 418.882L107.286 400.722C107.287 399.918 107.608 399.148 108.177 398.581C108.746 398.013 109.518 397.696 110.321 397.697L117.981 397.71C118.379 397.711 118.773 397.79 119.14 397.943C119.508 398.096 119.841 398.32 120.122 398.602C120.403 398.883 120.626 399.218 120.777 399.586C120.929 399.954 121.007 400.348 121.006 400.746L120.974 418.906ZM109.98 419.124C109.98 419.257 110.032 419.385 110.126 419.481C110.219 419.576 110.347 419.631 110.48 419.634L117.98 419.844C118.048 419.845 118.115 419.833 118.178 419.808C118.241 419.783 118.299 419.745 118.347 419.698C118.396 419.65 118.434 419.594 118.46 419.531C118.487 419.469 118.5 419.401 118.5 419.334V400.204C118.5 400.068 118.446 399.939 118.351 399.843C118.255 399.747 118.125 399.694 117.99 399.694H110.47C110.335 399.694 110.205 399.747 110.109 399.843C110.014 399.939 109.96 400.068 109.96 400.204L109.98 419.124Z" fill="#ED5A67"/>
<path d="M216.5 400.444V402.694C216.5 403.08 216.333 403.37 216 403.564C215.793 403.684 215.547 403.73 215.26 403.704C214.833 403.657 214.607 403.424 214.58 403.004L214.23 398.354C214.223 398.269 214.234 398.185 214.261 398.105C214.289 398.025 214.333 397.952 214.39 397.89C214.447 397.828 214.517 397.778 214.594 397.744C214.672 397.711 214.756 397.693 214.84 397.694H229.09C229.643 397.694 229.91 397.97 229.89 398.524L229.69 402.864C229.682 403.02 229.615 403.168 229.501 403.276C229.388 403.384 229.237 403.444 229.08 403.444H228.08C227.633 403.444 227.427 403.22 227.46 402.774L227.65 400.464C227.658 400.368 227.646 400.271 227.615 400.18C227.584 400.089 227.534 400.005 227.468 399.933C227.402 399.862 227.322 399.805 227.233 399.765C227.144 399.726 227.048 399.705 226.95 399.704L223.75 399.684C223.417 399.684 223.25 399.854 223.25 400.194V418.884C223.25 419.224 223.41 419.464 223.73 419.604L225.2 420.224C225.386 420.308 225.538 420.452 225.631 420.634C225.724 420.816 225.752 421.023 225.712 421.223C225.671 421.423 225.563 421.603 225.407 421.734C225.25 421.865 225.054 421.939 224.85 421.944H219.36C219.136 421.941 218.919 421.861 218.748 421.716C218.576 421.572 218.46 421.373 218.418 421.152C218.377 420.932 218.413 420.704 218.521 420.507C218.629 420.31 218.802 420.157 219.01 420.074L220.21 419.604C220.57 419.464 220.75 419.204 220.75 418.824V400.194C220.75 399.86 220.583 399.694 220.25 399.694H217.25C217.051 399.694 216.86 399.773 216.72 399.913C216.579 400.054 216.5 400.245 216.5 400.444Z" fill="#ED5A67"/>
<path d="M283.5 418.464V400.624C283.5 400.264 283.337 400 283.01 399.834L281.71 399.164C281.554 399.082 281.43 398.95 281.357 398.79C281.284 398.63 281.267 398.449 281.308 398.278C281.35 398.107 281.447 397.954 281.585 397.845C281.723 397.735 281.894 397.675 282.07 397.674L294.87 397.744C296.117 397.75 296.79 398.374 296.89 399.614C297.403 406.334 297.423 413.04 296.95 419.734C296.913 420.279 296.672 420.79 296.276 421.165C295.879 421.541 295.356 421.755 294.81 421.764L281.71 422.014C281.588 422.014 281.469 421.979 281.367 421.912C281.265 421.845 281.185 421.75 281.137 421.638C281.089 421.526 281.075 421.402 281.097 421.282C281.119 421.162 281.176 421.051 281.26 420.964L283.31 418.904C283.37 418.843 283.418 418.773 283.451 418.698C283.483 418.622 283.5 418.543 283.5 418.464ZM294.717 400.339C294.717 400.253 294.7 400.169 294.667 400.09C294.634 400.011 294.586 399.94 294.525 399.88C294.465 399.82 294.393 399.772 294.314 399.74C294.235 399.707 294.15 399.691 294.065 399.691L286.825 399.716C286.74 399.717 286.655 399.734 286.576 399.767C286.498 399.8 286.426 399.848 286.366 399.908C286.306 399.969 286.258 400.041 286.226 400.12C286.193 400.199 286.177 400.283 286.177 400.369L286.243 419.228C286.243 419.314 286.26 419.398 286.293 419.477C286.326 419.556 286.374 419.627 286.435 419.687C286.496 419.748 286.567 419.795 286.646 419.828C286.725 419.86 286.81 419.877 286.895 419.876L294.135 419.851C294.221 419.851 294.305 419.833 294.384 419.801C294.463 419.768 294.534 419.719 294.594 419.659C294.654 419.598 294.702 419.526 294.734 419.448C294.767 419.369 294.783 419.284 294.783 419.199L294.717 400.339Z" fill="#ED5A67"/>
<path d="M393.762 418.84C393.764 419.654 393.444 420.436 392.87 421.014C392.296 421.591 391.517 421.917 390.702 421.92L383.142 421.947C382.328 421.95 381.546 421.629 380.968 421.055C380.391 420.481 380.065 419.702 380.062 418.887L379.999 400.788C379.996 399.973 380.316 399.191 380.89 398.614C381.464 398.036 382.244 397.71 383.058 397.707L390.618 397.68C391.432 397.678 392.214 397.998 392.792 398.572C393.369 399.146 393.696 399.925 393.698 400.74L393.762 418.84ZM391.25 400.224C391.25 400.083 391.194 399.948 391.095 399.849C390.995 399.749 390.861 399.694 390.72 399.694H383.28C383.139 399.694 383.005 399.749 382.905 399.849C382.806 399.948 382.75 400.083 382.75 400.224V419.264C382.75 419.404 382.806 419.539 382.905 419.638C383.005 419.738 383.139 419.794 383.28 419.794H390.72C390.861 419.794 390.995 419.738 391.095 419.638C391.194 419.539 391.25 419.404 391.25 419.264V400.224Z" fill="#ED5A67"/>
</svg>
