<svg width="263" height="124" viewBox="0 0 263 124" fill="none" xmlns="http://www.w3.org/2000/svg">
<g clip-path="url(#clip0_247_85)">
<path d="M83.7734 54.2573C84.0021 53.7914 84.1185 53.5757 84.2522 53.2997C85.7361 50.2972 87.2631 47.3207 88.747 44.3355C89.0878 43.628 89.3121 43.2268 90.1144 43.2268C102.943 43.2096 116.406 43.2743 129.23 43.2355C132.668 43.2268 136.149 43.2441 139.583 43.2355C143.297 43.2268 144.802 41.415 146.424 38.0631C147.106 36.6482 149.047 32.7916 149.806 31.4198C149.991 31.0833 150.677 30.3672 151.178 30.3672C154.84 30.3672 159.089 30.3759 162.583 30.3672C162.837 30.3672 163.23 30.3672 163.76 30.3672C163.562 30.7727 161.863 34.2281 161.712 34.5344C160.202 37.5886 158.463 40.5048 156.949 43.5676C153.356 50.4655 147.753 54.0373 140.018 54.115C122.717 54.2875 105.518 54.2012 88.2164 54.253C87.0129 54.253 85.1279 54.253 83.7734 54.2703V54.2573Z" fill="url(#paint0_linear_247_85)"/>
<path d="M91.2695 39.1524C91.4507 38.7382 91.6146 38.4535 91.744 38.1947C93.3357 34.9809 103.77 13.9293 105.366 10.7112C108.904 4.18432 115.646 0.340681 123.061 0.189696C133.068 -0.013055 144.888 -0.0432519 153.597 0.0516528C161.775 0.0214558 169.6 0.0818497 177.779 0.0516528C178.21 0.0516528 178.659 0.0300835 179.228 0.0516528C179.012 0.491665 178.788 0.97913 178.637 1.2811C177.153 4.28354 175.432 7.28598 173.978 10.3014C173.659 10.9657 173.254 11.1814 172.538 11.1814C160.097 11.2029 147.868 11.2331 135.428 11.272C131.489 11.2849 127.551 11.2892 123.609 11.3237C120.097 11.3539 117.591 13.0234 115.999 16.1121C115.24 17.5874 105.845 36.9092 105.043 38.3586C104.857 38.6951 104.344 39.0402 103.973 39.0488C100.509 39.1135 97.0411 39.1092 93.5773 39.1179C93.3228 39.1179 91.7138 39.1998 91.2739 39.1481L91.2695 39.1524Z" fill="url(#paint1_linear_247_85)"/>
<path d="M171.59 15.293C169.825 18.8045 167.686 22.5618 166.275 25.4046C166.029 25.8964 165.529 26.207 164.981 26.207C158.463 26.2286 151.95 26.2502 145.432 26.2717C141.494 26.2847 138.362 26.138 134.424 26.1682C130.912 26.1984 128.337 28.2302 126.741 31.3146C126.452 31.8711 125.132 34.5888 123.32 38.2944C123.079 38.7905 122.57 39.1097 122.018 39.1097C120.064 39.1141 117.411 39.1572 115.439 39.1658C113.71 39.1701 112.795 39.0882 109.607 39.1054C113.382 31.0817 117.838 21.5179 118.804 19.7362C121.768 14.6545 123.89 15.7848 133 15.3404C143.327 15.3491 153.214 15.2973 163.036 15.3491C165.827 15.3491 168.751 15.293 171.59 15.293Z" fill="url(#paint2_linear_247_85)"/>
</g>
<g clip-path="url(#clip1_247_85)">
<path d="M13.8923 122.999C4.53177 122.999 -1.40374 116.632 0.287187 107.124C1.9738 97.6167 10.1308 91.2969 19.4913 91.2969H44.7561L43.2549 99.5838L20.5007 99.4975C15.9153 99.4975 11.7182 102.392 10.8986 107.12C10.0791 111.848 13.215 114.79 17.8004 114.79H30.4435L31.2157 110.304H19.4913L20.7983 103.018H42.6381L39.0319 122.995H13.8923V122.999Z" fill="url(#paint3_linear_247_85)"/>
<path d="M85.6841 91.2969L75.2625 103.988C74.939 103.988 74.6456 103.798 74.5076 103.509L68.8438 91.3012H55.3164L56.9038 94.0491C57.0203 94.213 57.1238 94.3899 57.2187 94.5797C57.2187 94.5883 57.2489 94.6444 57.305 94.7393L57.3309 94.7825C58.3575 96.6461 66.329 110.696 68.365 114.316L68.0458 116.11L66.8208 122.999H76.8585L78.4977 113.832L99.0994 91.2969H85.6841Z" fill="url(#paint4_linear_247_85)"/>
<path d="M149.469 91.2969L134.992 111.947L127.853 91.2969H114.641L113.554 97.5908C113.537 97.7763 113.511 97.9618 113.476 98.1516L111.686 108.397L109.637 120.131L109.137 123.004H119.174L121.737 108.444C121.909 107.478 123.251 107.357 123.587 108.285L128.923 122.956H137.464L147.567 108.44C148.153 107.595 149.477 108.142 149.301 109.156L146.872 122.956H156.91L162.505 91.3012H149.477L149.469 91.2969Z" fill="url(#paint5_linear_247_85)"/>
<path d="M206.645 91.2969H192.613L181.958 107.064L171.377 122.952H182.717L186.72 116.68H202.978L204.57 122.952H216.536L206.645 91.2969ZM191.301 109.342L198.009 98.6304C198.294 98.6304 198.54 98.8245 198.609 99.1006L201.145 109.346H191.301V109.342Z" fill="url(#paint6_linear_247_85)"/>
<path opacity="0.23" d="M111.686 108.398L109.658 120.132H109.637L111.686 108.398Z" fill="url(#paint7_linear_247_85)"/>
<path d="M229.655 91.2969L228.162 99.5493H240.469L236.319 122.999H246.357L250.507 99.5493H261.506L262.999 91.2969H229.655Z" fill="url(#paint8_linear_247_85)"/>
</g>
<defs>
<linearGradient id="paint0_linear_247_85" x1="29.1892" y1="166.262" x2="191.517" y2="-45.3317" gradientUnits="userSpaceOnUse">
<stop offset="0.13" stop-color="#061532"/>
<stop offset="1" stop-color="#278E68"/>
</linearGradient>
<linearGradient id="paint1_linear_247_85" x1="23.4468" y1="161.86" x2="185.775" y2="-49.734" gradientUnits="userSpaceOnUse">
<stop offset="0.13" stop-color="#061532"/>
<stop offset="1" stop-color="#278E68"/>
</linearGradient>
<linearGradient id="paint2_linear_247_85" x1="31.1172" y1="167.74" x2="193.441" y2="-43.8494" gradientUnits="userSpaceOnUse">
<stop offset="0.13" stop-color="#061532"/>
<stop offset="1" stop-color="#278E68"/>
</linearGradient>
<linearGradient id="paint3_linear_247_85" x1="4.84666" y1="132.585" x2="167.171" y2="-79.0045" gradientUnits="userSpaceOnUse">
<stop offset="0.13" stop-color="#061532"/>
<stop offset="1" stop-color="#278E68"/>
</linearGradient>
<linearGradient id="paint4_linear_247_85" x1="31.1171" y1="152.739" x2="193.441" y2="-58.8505" gradientUnits="userSpaceOnUse">
<stop offset="0.13" stop-color="#061532"/>
<stop offset="1" stop-color="#278E68"/>
</linearGradient>
<linearGradient id="paint5_linear_247_85" x1="74.9732" y1="186.387" x2="237.297" y2="-25.2065" gradientUnits="userSpaceOnUse">
<stop offset="0.13" stop-color="#061532"/>
<stop offset="1" stop-color="#278E68"/>
</linearGradient>
<linearGradient id="paint6_linear_247_85" x1="118.285" y1="219.613" x2="280.613" y2="8.02282" gradientUnits="userSpaceOnUse">
<stop offset="0.13" stop-color="#061532"/>
<stop offset="1" stop-color="#278E68"/>
</linearGradient>
<linearGradient id="paint7_linear_247_85" x1="62.6187" y1="176.911" x2="224.942" y2="-34.6828" gradientUnits="userSpaceOnUse">
<stop offset="0.13" stop-color="#061532"/>
<stop offset="1" stop-color="#278E68"/>
</linearGradient>
<linearGradient id="paint8_linear_247_85" x1="139.345" y1="235.768" x2="301.669" y2="24.1783" gradientUnits="userSpaceOnUse">
<stop offset="0.13" stop-color="#061532"/>
<stop offset="1" stop-color="#278E68"/>
</linearGradient>
<clipPath id="clip0_247_85">
<rect width="97" height="55" fill="white" transform="translate(83)"/>
</clipPath>
<clipPath id="clip1_247_85">
<rect width="263" height="33" fill="white" transform="translate(0 91)"/>
</clipPath>
</defs>
</svg>
